<?xml version="1.0" standalone="no"?>
<svg xmlns="http://www.w3.org/2000/svg" xmlns:xlink="http://www.w3.org/1999/xlink" width="313" height="313"
     stroke-linecap="round">
    <defs>
        <clipPath id="a_0">
            <path d="M0 0h313v313H0z"/>
        </clipPath>
    </defs>
    <rect fill="white" width="313" height="313"/>
    <g clip-path="url(#a_0)">
        <path d="M157.047 149.786 L163.816 146.012 L173.283 142.516 L176.611 134.251 L178.095 126.074 L176.602 118.163 L173.676 110.762 L163.763 106.457 L157.146 103.588 L148.471 107.253 L142.568 111.361 L134.618 119.68 L134.185 127.9 L134.552 134.908 L142.479 140.945 L147.7 146.679 L157.575 146.269"
              stroke="none" stroke-width="0" fill="rgb(0, 216, 255)"/>
        <path d="M156.505 148.14 M156.505 148.14 C168.428 146.21, 176.752 139.937, 178.405 126.24 M178.405 126.24 C177.157 114.421, 169.365 103.721, 156.505 104.34 M156.505 104.34 C146.339 104.7, 134.862 115.63, 134.604 126.24 M134.604 126.24 C133.811 139.509, 142.441 148.818, 156.505 148.14 M156.505 148.14 C156.505 148.14, 156.505 148.14, 156.505 148.14"
              stroke="rgb(0, 216, 255)" stroke-width="1" fill="none"/>
    </g>
    <g clip-path="url(#a_0)">
        <path d="M160.032 81.57 L185.261 79.366 L212.667 86.113 L228.62 87.514 L247.704 96.201 L263.175 106.166 L271.73 116.251 L273.824 127.01 L272.916 138.478 L267.244 143.664 L253.601 153.002 L230.857 162.054 L198.279 169.331 L157.42 175.16 L117.416 171.016 L90.637 167.539 L74.233 162.055 L58.91 154.708 L47.77 143.039 L40.46 136.137 L39.504 125.594 L43.382 115.936 L47.191 110.746 L64.013 97.859 L85.738 89.684 L107.225 83.13 L134.57 81.899 L156.629 78.539 M155.251 87.671 L113.539 88.664 L89.929 93.337 L78.056 97.617 L59.329 107.939 L51.651 114.838 L47.063 125.209 L45.364 134.465 L52.001 140.792 L63.114 148.577 L87.541 158.362 L119.898 165.305 L156.544 167.16 L189.751 164.62 L223.524 157.468 L255.961 144.854 L259.614 139.052 L266.6 134.698 L268.658 126.082 L263.375 116.379 L252.002 104.261 L236.867 99.745 L200.577 89.152 L153.967 85.62"
              stroke="none" stroke-width="0" fill="rgb(0, 216, 255)"/>
        <path d="M158.114 80.077 M158.114 80.077 C193.965 81.826, 237.72 82.424, 264.157 107.993 M264.157 107.993 C265.551 110.626, 267.429 110.663, 266.544 110.277 M266.544 110.277 C271.352 118.074, 277.096 129.087, 271.263 136.794 M271.263 136.794 C262.336 154.416, 237.126 162.343, 212.248 168.064 M212.248 168.064 C175.941 176.288, 139.68 176.126, 104.512 169.003 M104.512 169.003 C85.553 164.155, 63.538 157.811, 48.892 145.02 M48.892 145.02 C41.63 140.475, 38.659 133.956, 39.203 124.87 M39.203 124.87 C41.922 113.111, 54.213 105.233, 62.737 98.652 M62.737 98.652 C89.305 84.073, 125.903 79.303, 158.114 80.077 M158.114 80.077 C158.114 80.077, 158.114 80.077, 158.114 80.077 M155.404 85.814 M155.404 85.814 C121.218 85.06, 83.492 89.076, 54.554 110.898 M54.554 110.898 C53.364 111.504, 52.56 111.509, 51.796 113.377 M51.796 113.377 C49.284 113.741, 50.276 114.969, 50.138 115.114 M50.138 115.114 C47.041 118.548, 42.548 129.724, 48.221 135.596 M48.221 135.596 C51.097 142.739, 59.72 146.822, 66.786 150.61 M66.786 150.61 C93.643 163.824, 124.113 166.246, 155.448 167.556 M155.448 167.556 C188.387 167.658, 216.591 164.121, 245.861 150.673 M245.861 150.673 C256.502 145.64, 270.081 138.578, 268.627 126.049 M268.627 126.049 C266.259 117.2, 259.726 109.544, 251.515 105.87 M251.515 105.87 C250.63 106.419, 246.067 104.492, 245.568 102.603 M245.568 102.603 C216.897 87.686, 186.653 84.123, 155.404 85.813 M155.404 85.813 C155.404 85.813, 155.404 85.814, 155.404 85.814"
              stroke="rgb(0, 216, 255)" stroke-width="1" fill="none"/>
    </g>
    <g clip-path="url(#a_0)">
        <path d="M206.038 23.984 L215.319 26.301 L220.367 30.923 L227.829 48.286 L228.236 59.269 L221.659 89.614 L215.113 113.756 L205.625 138.121 L190.775 159.054 L170.859 188.399 L146.154 215.863 L135.99 221.099 L118.287 230.61 L109.985 231.068 L97.071 229.105 L92.108 220.403 L88.671 212.678 L86.473 203.882 L86.802 187.755 L91.475 154.917 L97.709 140.091 L110.922 112.109 L138.258 69.74 L163.263 41.332 L187.236 28.093 L194.389 26.026 L204.396 21.711 M203.594 27.739 L191.676 31.987 L181.912 36.069 L163.68 50.567 L137.961 80.077 L118.141 107.412 L103.803 141.026 L98.063 154.855 L91.986 182.374 L91.973 199.487 L92.92 212.114 L93.717 217.639 L101.072 225.954 L107.077 227.108 L121.431 225.326 L131.915 216.933 L140.417 208.478 L167.17 183.786 L182.068 165.186 L195.268 143.718 L206.293 118.827 L218.63 92.584 L223.567 63.692 L222.659 55.546 L219.625 39.627 L213.07 31.688 L203.883 28.088"
              stroke="none" stroke-width="0" fill="rgb(0, 216, 255)"/>
        <path d="M205.968 22.304 M205.968 22.304 C218.18 23.452, 225.823 39.847, 227.639 51.203 M227.639 51.203 C229.258 54.505, 228.075 56.016, 227.864 58.456 M227.864 58.456 C227.875 62.335, 225.876 65.093, 227.463 66.31 M227.463 66.31 C223.853 97.07, 211.506 129.176, 192.431 157.882 M192.431 157.882 C174.439 187.425, 155.169 213.198, 126.481 226.331 M126.481 226.331 C118.917 230.545, 107.268 232.304, 97.807 228.469 M97.807 228.469 C86.051 222.831, 85.245 208.635, 85.463 195.134 M85.463 195.134 C85.825 192.192, 86.741 188.762, 85.997 186.619 M85.997 186.619 C89.551 142.862, 113.162 105.188, 138.121 70.932 M138.121 70.932 C154.305 50.95, 173.361 29.918, 195.009 24.065 M195.009 24.065 C197.944 24.544, 199.704 20.838, 205.968 22.305 M205.968 22.305 C205.968 22.305, 205.968 22.304, 205.968 22.304 M205.313 28.036 M205.313 28.036 C188.567 26.502, 176.397 38.959, 162.129 52.523 M162.129 52.523 C127.457 83.519, 105.555 130.135, 93.969 173.425 M93.969 173.425 C94.432 175.164, 94.239 182.124, 92.08 184.018 M92.08 184.018 C92.9 186.591, 92.981 188.67, 91.303 192.317 M91.303 192.317 C92.764 192.969, 89.165 197.321, 91.22 198.958 M91.22 198.958 C92.012 199.162, 90.949 201.736, 91.572 204.143 M91.572 204.143 C92.931 203.965, 92.521 206.618, 92.144 208.07 M92.144 208.07 C94.094 208.606, 93.146 209.579, 92.78 210.945 M92.78 210.945 C92.694 212.832, 93.765 211.879, 93.46 213.249 M93.46 213.249 C95.886 220.469, 100.11 223.702, 107.535 225.231 M107.535 225.231 C125.604 227.122, 138.284 213.057, 152.02 201.105 M152.02 201.105 C175.796 179.087, 194.042 149.362, 205.709 120.782 M205.709 120.782 C216.245 97.712, 227.57 69.394, 220.924 44.454 M220.924 44.454 C219.709 43.938, 219.761 43.305, 220.19 41.49 M220.19 41.49 C220.503 42.228, 218.879 38.202, 219.418 39.128 M219.418 39.128 C217.493 34.641, 211.299 26.331, 205.313 28.036 M205.313 28.036 C205.313 28.036, 205.313 28.036, 205.313 28.036"
              stroke="rgb(0, 216, 255)" stroke-width="1" fill="none"/>
    </g>
    <g clip-path="url(#a_0)">
        <path d="M109.528 22.592 L120.317 26.078 L134.565 31.916 L156.897 47.845 L182.097 75.783 L193.913 99.662 L208.78 121.527 L220.573 154.669 L228.004 184.955 L229.121 206.651 L226.115 215.667 L219.988 225.623 L214.237 229.722 L199.669 230.001 L188.483 226.361 L175.26 218.294 L158.29 205.173 L132.609 177.421 L120.773 160.777 L102.909 127.81 L92.28 95.642 L86.572 67.051 L86.036 51.818 L88.513 40.375 L90.915 32.041 L101.951 22.219 L108.276 24.159 M109.007 27.659 L102.433 29.751 L94.706 36.302 L90.383 47.528 L92.315 61.855 L92.478 73.705 L98.793 95.207 L113.286 131.324 L136.493 173.289 L160.211 200.123 L179.333 213.424 L187.241 219.351 L199.853 224.201 L208.876 226.594 L211.777 225.153 L220.684 214.346 L222.73 205.043 L224.376 193.488 L219.027 173.868 L212.623 145.428 L192.404 108.781 L171.955 77.11 L146.729 48.598 L125.085 33.895 L118.571 30.148 L105.98 26.451"
              stroke="none" stroke-width="0" fill="rgb(0, 216, 255)"/>
        <path d="M108.127 22.52 M108.127 22.52 C127.094 22.573, 141.19 36.133, 155.111 47.936 M108.127 22.52 C127.684 20.893, 142.686 32.616, 155.111 47.936 M155.111 47.936 C179.373 73.793, 201.131 103.782, 213.373 135.229 M155.111 47.936 C181.629 73.301, 200.902 102.319, 213.373 135.229 M213.373 135.229 C223.623 160.713, 232.575 189.127, 225.492 214.907 M213.373 135.229 C225.056 161.207, 232.613 190.021, 225.492 214.907 M225.492 214.907 C221.053 224.517, 216.479 231.996, 205.944 231.07 M225.492 214.907 C222.326 224.525, 213.798 232.408, 205.944 231.07 M205.944 231.07 C187.381 229.935, 172.993 217.739, 158.114 204.979 M205.944 231.07 C187.785 232.165, 170.525 218.373, 158.114 204.979 M158.114 204.979 C120.97 172.568, 96.608 123.79, 87.557 77.001 M158.114 204.979 C124.767 172.858, 96.466 126.02, 87.557 77.001 M87.557 77.001 C86.129 73.156, 86.414 69.386, 86.045 66.599 M87.557 77.001 C85.894 73.21, 86.258 70.18, 86.045 66.599 M86.045 66.599 C86.486 62.822, 84.694 62.041, 85.527 58.03 M86.045 66.599 C85.148 62.141, 86.676 61.702, 85.527 58.03 M85.527 58.03 C85.306 54.102, 85.204 55.099, 85.698 51.115 M85.527 58.03 C85.727 56.101, 87.663 54.966, 85.698 51.115 M85.698 51.115 C87.153 50.85, 86.892 48.836, 86.173 46.532 M85.698 51.115 C86.533 50.736, 85.983 47.151, 86.173 46.532 M86.173 46.532 C84.902 45.238, 87.863 44.15, 86.945 42.272 M86.173 46.532 C86.557 42.991, 88.722 45.423, 86.945 42.272 M86.945 42.272 C88.271 42.979, 88.949 39.318, 87.659 39.495 M86.945 42.272 C87.366 42.252, 88.26 41.583, 87.659 39.495 M87.659 39.495 C89.274 29.385, 95.584 22.106, 108.127 22.519 M87.659 39.495 C92.257 28.863, 95.412 20.372, 108.127 22.519 M108.127 22.519 C108.127 22.519, 108.127 22.52, 108.127 22.52 M108.127 22.519 C108.127 22.519, 108.127 22.52, 108.127 22.52 M107.466 28.256 M107.466 28.256 C95.876 27.619, 92.304 42.123, 91.65 48.963 M107.466 28.256 C97.487 29.861, 92.861 42.258, 91.65 48.963 M91.65 48.963 C89.635 51.473, 93.191 54.004, 91.288 54.186 M91.65 48.963 C90.584 50.443, 89.372 52.579, 91.288 54.186 M91.288 54.186 C92.434 56.45, 92.482 58.676, 91.362 60.882 M91.288 54.186 C90.439 57.433, 91.446 56.878, 91.362 60.882 M91.362 60.882 C94.544 92.318, 107.644 122.58, 124.804 152.928 M91.362 60.882 C94.413 94.714, 106.412 125.402, 124.804 152.928 M124.804 152.928 C142.146 181.07, 161.736 205.94, 188.225 220.389 M124.804 152.928 C143.206 177.789, 160.626 207.88, 188.225 220.389 M188.225 220.389 C195.76 223.973, 204.821 225.516, 212.439 223.734 M188.225 220.389 C195.916 226.571, 206.409 228.53, 212.439 223.734 M212.439 223.734 C222.914 219.847, 221.905 208.69, 222.46 199.413 M212.439 223.734 C218.964 217.795, 222.165 206.213, 222.46 199.413 M222.46 199.413 C222.927 195.328, 223.005 194.608, 222.523 192.562 M222.46 199.413 C223.197 199.139, 222.022 194.312, 222.523 192.562 M222.523 192.562 C223.374 190.926, 221.248 188.208, 221.873 183.988 M222.523 192.562 C222.33 190.648, 220.537 187.462, 221.873 183.988 M221.873 183.988 C219.556 156.855, 205.851 131.763, 193.429 108.457 M221.873 183.988 C217.525 157.166, 208.247 134.226, 193.429 108.457 M193.429 108.457 C176.462 77.249, 156.866 47.986, 126.784 33.997 M193.429 108.457 C178 77.75, 153.682 50.918, 126.784 33.997 M126.784 33.997 C119.991 32.026, 115.198 29.107, 107.466 28.257 M126.784 33.997 C118.573 28.867, 113.653 27.078, 107.466 28.257 M107.466 28.257 C107.466 28.257, 107.466 28.256, 107.466 28.256 M107.466 28.257 C107.466 28.257, 107.466 28.256, 107.466 28.256"
              stroke="rgb(0, 216, 255)" stroke-width="1" fill="none"/>
    </g>
    <g clip-path="url(#a_0)">
        <path d="M28.368 292.75 L26.118 267.462 L44.928 270.395 L49.042 273.943 L48.033 280.331 L39.932 282.991 L30.858 286.437 L32.878 281.288 L39.171 281.284 L42.822 278.142 L39.224 274.009 L33.269 274.091 L32.849 293.233 L29.385 294.489 M41.599 282.459 L50.297 294.126 L42.996 292.662 L35.591 282.521 L42.749 283.074 M61.482 294.231 L51.033 290.45 L50.066 286.082 L52.711 279.12 L58.592 275.817 L65.056 278.911 L69.684 285.145 L67.2 290.129 L59.2 293.592 M60.067 291.326 L60.238 291.104 L64.507 283.605 L62.812 280.286 L61.121 278.527 L55.584 280.605 L55.581 282.795 L57.95 288.873 L58.243 290.132 M86.005 287.776 L84.477 276.232 L90.774 275.075 L89.48 294.729 L86.104 292.574 L84.781 291.434 L83.894 294.767 L79.123 292.738 L77.635 291.995 L74.168 287.5 L71.48 276.321 L79.148 273.236 L79.311 287.636 L83.729 288.519 L84.509 285.02 M106.195 303.977 L99.57 299.887 L94.258 295.306 L99.791 297.029 L102.811 296.096 L106.853 298.754 L107.294 297.584 L109.434 290.33 L102.148 294.372 L96.335 291.005 L96.716 287.16 L95.354 279.714 L101.312 273.485 L106.295 276.729 L106.438 279.646 L106.861 276.087 L112.897 276.582 L114.709 297.969 L112.698 298.787 L102.798 301.679 M105.406 289.307 L106.36 290.407 L108.378 282.99 L104.764 281.266 L103.055 280.689 L101.572 279.88 L102 285.491 L102.379 288.581 L103.372 288.952 M124.055 282.061 L123.973 294.058 L119.355 296.341 L116.194 269.444 L123.945 268.826 L122.221 279.705 L127.399 273.836 L134.095 275.756 L137.42 278.896 L135.546 296.085 L130.671 292.933 L131.905 279.203 L126.669 281.435 L123.983 283.989 M145.496 295.67 L140.786 293.29 L142.284 289.4 L145.557 289.898 L144.085 292.894 M151.146 274.625 L156.442 276.463 L156.019 297.08 L154.631 302.652 L148.817 301.375 L147.139 298.749 L149.207 298.271 L150.861 295.833 L152.804 273.355 M153.184 272.326 L151.226 268.395 L155.278 264.902 L158.715 268.5 L153.132 274.017 M179.081 278.737 L172.993 282.369 L169.023 277.853 L166.216 279.132 L176.864 285 L177.486 288.484 L176.189 292.915 L170.035 294.201 L166.121 295.996 L161.943 292.64 L162.137 286.891 L166.385 287.058 L169.91 289.42 L172.536 287.054 L162.225 284.149 L159.268 278.914 L162.645 277.907 L174.303 274.667 L174.686 277.856 L175.91 278.645 M189.076 295.706 L187.932 266.23 L203.403 268.524 L210.795 273.691 L208.096 280.994 L201.797 285.639 L194.319 286.753 L193.003 280.146 L202.277 281.531 L203.598 275.161 L199.87 273.38 L195.587 273.86 L194.984 293.961 L189.47 292.894 M204.995 280.868 L209.766 293.306 L205.512 295.421 L197.989 282.187 L204.928 283.389 M221.452 296.744 L213.333 292.59 L212.437 286.536 L212.844 278.1 L221.017 274.259 L226.946 278.612 L232.354 285.557 L229.733 286.77 L216.156 287.761 L212.624 283.762 L225.861 283.662 L225.544 278.618 L219.458 278.597 L217.191 281.896 L216.643 286.507 L221.746 290.876 L223.924 286.474 L231.302 290.459 L226.542 293.674 L222.283 294.13 M239.67 296.172 L236.441 292.963 L235.15 285.593 L244.62 280.549 L243.219 280.258 L240.604 279.734 L234.665 278.373 L240.067 276.026 L245.549 275.119 L252.121 279.044 L252.623 294.704 L245.032 294.068 L244.023 290.052 L241.956 296.176 M242.73 289.473 L244.796 288.774 L245.152 286.898 L237.556 288.809 L238.444 288.929 L239.804 291.905 M265.996 294.086 L256.888 290.588 L253.462 283.291 L257.915 278.711 L263.814 275.965 L270.367 277.627 L271.349 283.257 L266.9 283.147 L262.749 280.61 L259.878 279.5 L262.035 289.115 L263.87 288.948 L267.491 290.135 L266.817 288.592 L273.996 286.547 L271.119 294.156 L263.019 294.377 M286.402 274.014 L287.417 277.601 L275.822 278.345 L276.803 275.038 L288.823 273.384 M277.319 269.199 L284.072 271.49 L284.113 288.214 L283.226 288.928 L284.577 290.813 L287.729 292.329 L281.55 292.441 L279.951 292.567 L276.326 268.471"
              stroke="none" stroke-width="0" fill="rgb(0, 216, 255)"/>
        <path d="M27.703 294.399 M27.703 294.399 C29.477 288.374, 28.26 282.266, 27.703 268.217 M27.703 294.399 C26.928 285.413, 27.179 277.695, 27.703 268.217 M27.703 268.217 C30.313 267.562, 31.943 269.08, 38.033 268.217 M27.703 268.217 C30.948 268.209, 33.41 267.734, 38.033 268.217 M38.033 268.217 C41.898 266.984, 43.115 268.035, 43.095 269.278 M38.033 268.217 C41.19 269.506, 40.576 268.154, 43.095 269.278 M43.095 269.278 C43.992 271.739, 45.663 271.813, 46.303 272.257 M43.095 269.278 C43.655 269.606, 47.661 269.844, 46.303 272.257 M46.303 272.257 C45.278 272.005, 45.892 274.125, 47.416 276.769 M46.303 272.257 C48.408 275.228, 47.266 273.61, 47.416 276.769 M47.416 276.769 C48.804 277.676, 45.162 281.093, 46.291 281.257 M47.416 276.769 C45.514 279.524, 49.284 281.244, 46.291 281.257 M46.291 281.257 C43.795 283.007, 43.434 282.364, 43.031 284.12 M46.291 281.257 C46.038 284.005, 44.241 284.002, 43.031 284.12 M43.031 284.12 C39.876 284.323, 41.562 285.442, 37.891 285.117 M43.031 284.12 C39.548 285.91, 40.427 284.451, 37.891 285.117 M37.891 285.117 C35.532 285.319, 33.943 285.467, 30.975 285.117 M37.891 285.117 C36.03 284.929, 33.77 285.505, 30.975 285.117 M30.975 285.117 C31.039 283.991, 30.868 282.785, 30.975 280.669 M30.975 285.117 C30.83 284.005, 31.189 283.099, 30.975 280.669 M30.975 280.669 C33.471 281, 35.984 281.183, 36.997 280.669 M30.975 280.669 C32.593 280.681, 33.571 280.457, 36.997 280.669 M36.997 280.669 C39.397 280.472, 38.483 278.54, 39.63 280.234 M36.997 280.669 C38.023 278.707, 38.95 279.877, 39.63 280.234 M39.63 280.234 C39.897 279.108, 42.736 281.429, 41.19 278.93 M39.63 280.234 C38.94 280.607, 41.465 278.03, 41.19 278.93 M41.19 278.93 C41.103 278.574, 43.326 276.379, 41.714 276.769 M41.19 278.93 C43.518 276.997, 42.83 276.432, 41.714 276.769 M41.714 276.769 C42.103 277.015, 39.788 275.899, 41.19 274.571 M41.714 276.769 C42.176 278.044, 40.8 275.957, 41.19 274.571 M41.19 274.571 C39.216 274.994, 40.406 272.464, 39.617 273.215 M41.19 274.571 C42.584 274.271, 40.564 275.82, 39.617 273.215 M39.617 273.215 C38.073 274.706, 37.158 270.842, 36.971 272.742 M39.617 273.215 C40.106 270.701, 37.382 273.703, 36.971 272.742 M36.971 272.742 C35.86 272.999, 34.587 272.962, 33.238 272.742 M36.971 272.742 C35.944 272.665, 34.945 272.716, 33.238 272.742 M33.238 272.742 C33.855 279.714, 35.048 282.646, 33.238 294.399 M33.238 272.742 C33.806 278.086, 33.811 286.124, 33.238 294.399 M33.238 294.399 C30.905 294.14, 28.534 294.244, 27.703 294.399 M33.238 294.399 C31.522 294.411, 29.653 294.378, 27.703 294.399 M27.703 294.399 C27.703 294.399, 27.703 294.399, 27.703 294.399 M27.703 294.399 C27.703 294.399, 27.703 294.399, 27.703 294.399 M41.842 282.484 M41.842 282.484 C43.687 286.096, 46.356 290.561, 48.349 294.399 M41.842 282.484 C44.633 286.951, 47.08 290.712, 48.349 294.399 M48.349 294.399 C46.512 294.228, 44.58 294.287, 42.238 294.399 M48.349 294.399 C47.062 294.132, 45.555 294.437, 42.238 294.399 M42.238 294.399 C39.187 292.413, 38.827 288.048, 35.872 282.484 M42.238 294.399 C39.758 290.403, 37.011 285.173, 35.872 282.484 M35.872 282.484 C38.554 282.553, 39.973 282.106, 41.842 282.484 M35.872 282.484 C37.714 282.646, 40.422 282.277, 41.842 282.484 M41.842 282.484 C41.842 282.484, 41.842 282.484, 41.842 282.484 M41.842 282.484 C41.842 282.484, 41.842 282.484, 41.842 282.484 M59.781 294.782 M59.781 294.782 C57.31 296.391, 57.939 293.177, 54.629 293.517 M59.781 294.782 C59.926 293.739, 56.329 296.064, 54.629 293.517 M54.629 293.517 C51.632 292.841, 50.535 291.043, 51.292 289.963 M54.629 293.517 C53.493 292.362, 53.585 290.484, 51.292 289.963 M51.292 289.963 C52.178 288.341, 51.614 284.889, 50.116 284.657 M51.292 289.963 C50.81 286.207, 49.812 287.334, 50.116 284.657 M50.116 284.657 C51.369 282.051, 51.836 279.395, 51.292 279.339 M50.116 284.657 C51.801 280.992, 51.493 279.797, 51.292 279.339 M51.292 279.339 C54.023 276.511, 52.747 277.012, 54.629 275.785 M51.292 279.339 C53.237 279.456, 54.3 277.323, 54.629 275.785 M54.629 275.785 C54.206 274.047, 59.212 272.609, 59.781 274.507 M54.629 275.785 C55.145 274.142, 58.055 276.032, 59.781 274.507 M59.781 274.507 C59.859 275.377, 63.491 274.028, 64.921 275.785 M59.781 274.507 C60.599 275.345, 65.448 275.65, 64.921 275.785 M64.921 275.785 C64.966 278.332, 68.796 278.068, 68.27 279.339 M64.921 275.785 C67.715 276.486, 65.749 278.771, 68.27 279.339 M68.27 279.339 C70.336 279.032, 70.509 283.762, 69.446 284.657 M68.27 279.339 C69.672 281.258, 67.373 283.107, 69.446 284.657 M69.446 284.657 C68.236 287.053, 70.461 289.806, 68.27 289.963 M69.446 284.657 C71.706 284.873, 68.477 289.109, 68.27 289.963 M68.27 289.963 C68.622 290.553, 68.043 293.286, 64.92 293.517 M68.27 289.963 C65.241 292.395, 67.646 292.474, 64.92 293.517 M64.92 293.517 C64.165 292.409, 59.925 294.696, 59.781 294.782 M64.92 293.517 C65.043 294.701, 63.063 295.738, 59.781 294.782 M59.781 294.782 C59.781 294.782, 59.781 294.782, 59.781 294.782 M59.781 294.782 C59.781 294.782, 59.781 294.782, 59.781 294.782 M59.807 290.563 M59.807 290.563 C61.142 291.073, 60.365 288.885, 62.069 289.796 M59.807 290.563 C59.226 291.815, 63.244 290.725, 62.069 289.796 M62.069 289.796 C61.087 290.604, 64.862 290.257, 63.437 287.674 M62.069 289.796 C64.397 287.041, 62.234 289.749, 63.437 287.674 M63.437 287.674 C64.185 288.207, 63.708 285.938, 63.91 284.619 M63.437 287.674 C64.542 286.637, 64.222 286.891, 63.91 284.619 M63.91 284.619 C63.115 283.784, 63.403 283.292, 63.437 281.563 M63.91 284.619 C65.699 283.77, 65.184 283.058, 63.437 281.563 M63.437 281.563 C63.737 279.172, 62.217 279.108, 62.069 279.441 M63.437 281.563 C61.897 282.224, 62.9 278.321, 62.069 279.441 M62.069 279.441 C59.972 279.302, 61.165 280.23, 59.807 278.661 M62.069 279.441 C59.469 281.058, 62.296 279.861, 59.807 278.661 M59.807 278.661 C57.914 278.298, 59.389 278.598, 57.505 279.441 M59.807 278.661 C60.026 278.574, 57.295 279.163, 57.505 279.441 M57.505 279.441 C55.879 278.921, 58.121 281.703, 56.112 281.563 M57.505 279.441 C56.593 277.718, 57.529 279.88, 56.112 281.563 M56.112 281.563 C57.498 280.834, 54.536 284.122, 55.652 284.619 M56.112 281.563 C57.144 282.6, 56.245 281.715, 55.652 284.619 M55.652 284.619 C56.083 287.275, 56.173 286.271, 56.112 287.674 M55.652 284.619 C54.507 285.86, 53.962 287.334, 56.112 287.674 M56.112 287.674 C57.284 289.115, 57.963 291.134, 57.505 289.796 M56.112 287.674 C58.619 288.128, 55.011 287.747, 57.505 289.796 M57.505 289.796 C59.861 288.604, 60.887 292.297, 59.807 290.563 M57.505 289.796 C57.178 291.939, 60.184 288.875, 59.807 290.563 M59.807 290.563 C59.807 290.563, 59.807 290.563, 59.807 290.563 M59.807 290.563 C59.807 290.563, 59.807 290.563, 59.807 290.563 M85.579 286.038 M85.579 286.038 C84.567 282.999, 85.303 281.81, 85.579 274.762 M85.579 286.038 C85.247 282.432, 85.179 277.974, 85.579 274.762 M85.579 274.762 C87.868 274.967, 88.662 274.338, 91.025 274.762 M85.579 274.762 C86.803 274.953, 87.928 274.953, 91.025 274.762 M91.025 274.762 C92.417 282.541, 90.149 285.957, 91.025 294.399 M91.025 274.762 C90.789 280.469, 90.469 287.006, 91.025 294.399 M91.025 294.399 C88.813 294.05, 87.425 294.052, 85.797 294.399 M91.025 294.399 C89.474 294.531, 87.25 294.383, 85.797 294.399 M85.797 294.399 C85.742 292.972, 86.029 292.224, 85.797 290.832 M85.797 294.399 C85.683 293.686, 85.807 292.819, 85.797 290.832 M85.797 290.832 C85.753 290.836, 85.706 290.82, 85.592 290.832 M85.797 290.832 C85.733 290.832, 85.673 290.834, 85.592 290.832 M85.592 290.832 C86.863 293.837, 84.477 292.87, 83.38 293.606 M85.592 290.832 C85.993 294.078, 86.142 292.319, 83.38 293.606 M83.38 293.606 C83.027 295.764, 82.638 293.549, 79.635 294.654 M83.38 293.606 C80.155 293.022, 79.92 295.889, 79.635 294.654 M79.635 294.654 C79.241 295.13, 77.87 293.627, 76.17 293.759 M79.635 294.654 C79.567 294.241, 77.263 294.18, 76.17 293.759 M76.17 293.759 C74.366 292.74, 73.449 291.043, 73.83 291.215 M76.17 293.759 C76.409 291.189, 72.397 291.749, 73.83 291.215 M73.83 291.215 C73.957 289.412, 73.888 288.909, 72.987 287.265 M73.83 291.215 C72.07 292.193, 73.689 289.706, 72.987 287.265 M72.987 287.265 C73.058 283.317, 73.988 278.795, 72.987 274.762 M72.987 287.265 C72.895 283.849, 73.402 280.578, 72.987 274.762 M72.987 274.762 C75.053 274.86, 76.94 275.281, 78.433 274.762 M72.987 274.762 C74.928 274.634, 76.238 274.876, 78.433 274.762 M78.433 274.762 C77.837 277.827, 79.288 282.573, 78.433 286.294 M78.433 274.762 C77.8 278.041, 78.025 281.468, 78.433 286.294 M78.433 286.294 C77.346 287.191, 79.838 288.655, 79.366 289.042 M78.433 286.294 C80.464 286.063, 76.87 290.025, 79.366 289.042 M79.366 289.042 C80.976 288.935, 82.585 288.492, 81.834 290.052 M79.366 289.042 C78.192 290.69, 78.514 290.108, 81.834 290.052 M81.834 290.052 C80.504 289.866, 81.346 289.855, 83.674 289.605 M81.834 290.052 C80.214 288.094, 83.226 288.666, 83.674 289.605 M83.674 289.605 C83.957 290.773, 84.423 287.185, 85.055 288.25 M83.674 289.605 C86.516 289.108, 86.654 288.154, 85.055 288.25 M85.055 288.25 C87.002 289.437, 87.433 286.24, 85.579 286.038 M85.055 288.25 C87.28 288.641, 84.961 285.015, 85.579 286.038 M85.579 286.038 C85.579 286.038, 85.579 286.038, 85.579 286.038 M85.579 286.038 C85.579 286.038, 85.579 286.038, 85.579 286.038 M104.228 302.171 M104.228 302.171 C102.21 301.77, 102.197 303.738, 99.69 301.443 M104.228 302.171 C102.741 303.073, 101.086 303.755, 99.69 301.443 M99.69 301.443 C97.895 299.092, 99.401 300.386, 96.698 299.487 M99.69 301.443 C98.152 298.707, 95.891 299.812, 96.698 299.487 M96.698 299.487 C97.61 297.386, 95.615 298.473, 95.254 296.7 M96.698 299.487 C94.051 297.065, 95.125 299.401, 95.254 296.7 M95.254 296.7 C96.698 296.228, 98.216 296.733, 100.291 296.022 M95.254 296.7 C96.629 296.367, 97.725 296.376, 100.291 296.022 M100.291 296.022 C100.083 298.406, 98.817 295.221, 101.019 297.122 M100.291 296.022 C98.507 297.347, 99.075 295.038, 101.019 297.122 M101.019 297.122 C100.387 297.244, 101.637 298.255, 102.336 297.94 M101.019 297.122 C99.301 295.187, 100.326 296.743, 102.336 297.94 M102.336 297.94 C104.285 299.553, 103.069 299.674, 104.356 298.259 M102.336 297.94 C104.228 299.906, 104.201 296.438, 104.356 298.259 M104.356 298.259 C105.469 297.752, 106.966 297.915, 107.283 297.39 M104.356 298.259 C105.049 298.902, 108.57 298.581, 107.283 297.39 M107.283 297.39 C106.842 298.173, 108.61 296.004, 108.447 294.514 M107.283 297.39 C109.033 297.223, 110.538 294.144, 108.447 294.514 M108.447 294.514 C108.099 293.927, 108.724 292.837, 108.447 290.921 M108.447 294.514 C108.535 293.937, 108.432 293.028, 108.447 290.921 M108.447 290.921 C108.356 290.901, 108.322 290.942, 108.217 290.921 M108.447 290.921 C108.375 290.91, 108.296 290.927, 108.217 290.921 M108.217 290.921 C106.558 290.915, 107.883 293.689, 107.143 292.468 M108.217 290.921 C109.808 292.862, 109.768 293.898, 107.143 292.468 M107.143 292.468 C106.094 293.705, 104.866 295.042, 105.302 293.657 M107.143 292.468 C106.654 290.767, 106.042 293.117, 105.302 293.657 M105.302 293.657 C104.273 294.725, 102.56 294.974, 102.617 294.117 M105.302 293.657 C104.241 294.506, 104.527 295.036, 102.617 294.117 M102.617 294.117 C101.217 295.88, 99.234 292.068, 98.59 293.095 M102.617 294.117 C102.231 294.057, 100.164 294.811, 98.59 293.095 M98.59 293.095 C99.161 291.34, 95.236 290.515, 95.714 289.937 M98.59 293.095 C96.851 292.035, 95.664 290.424, 95.714 289.937 M95.714 289.937 C93.548 289.751, 96.044 285.687, 94.653 284.542 M95.714 289.937 C96.36 287.126, 95.371 284.932, 94.653 284.542 M94.653 284.542 C96.645 282.523, 94.802 280.025, 95.74 278.968 M94.653 284.542 C93.981 280.119, 96.441 280.318, 95.74 278.968 M95.74 278.968 C97.214 278.925, 97.747 274.379, 98.629 275.619 M95.74 278.968 C94.788 278.854, 98.07 277.226, 98.629 275.619 M98.629 275.619 C98.22 273.032, 102.871 273.472, 102.605 274.507 M98.629 275.619 C101.484 273.886, 103.386 274.449, 102.605 274.507 M102.605 274.507 C103.335 274.668, 105.321 273.574, 105.366 275.069 M102.605 274.507 C104.463 273.291, 104.862 275.955, 105.366 275.069 M105.366 275.069 C107.51 277.317, 105.8 277.12, 107.156 276.45 M105.366 275.069 C108.113 273.251, 106.32 276.531, 107.156 276.45 M107.156 276.45 C107.201 275.588, 107.637 278.032, 108.217 278.061 M107.156 276.45 C108.977 278.088, 108.305 278.968, 108.217 278.061 M108.217 278.061 C108.259 278.052, 108.343 278.055, 108.421 278.061 M108.217 278.061 C108.284 278.064, 108.344 278.059, 108.421 278.061 M108.421 278.061 C108.571 276.89, 108.321 275.279, 108.421 274.762 M108.421 278.061 C108.416 276.911, 108.459 275.898, 108.421 274.762 M108.421 274.762 C109.439 274.976, 110.501 274.328, 113.829 274.762 M108.421 274.762 C109.372 274.644, 110.564 274.555, 113.829 274.762 M113.829 274.762 C112.044 279.789, 112.022 284.467, 113.829 294.59 M113.829 274.762 C112.969 280.397, 114.248 285.181, 113.829 294.59 M113.829 294.59 C112.326 296.648, 112.122 298.38, 112.602 298.784 M113.829 294.59 C112.956 298.437, 115.398 299.816, 112.602 298.784 M112.602 298.784 C112.237 300.349, 109.04 299.696, 109.201 301.315 M112.602 298.784 C113.795 301.073, 110.182 300.395, 109.201 301.315 M109.201 301.315 C108.526 300.491, 106.554 301.982, 104.228 302.171 M109.201 301.315 C105.585 300.251, 104.153 302.5, 104.228 302.171 M104.228 302.171 C104.228 302.171, 104.228 302.171, 104.228 302.171 M104.228 302.171 C104.228 302.171, 104.228 302.171, 104.228 302.171 M104.343 290.027 M104.343 290.027 C104.506 291.99, 105.869 289.591, 106.568 289.375 M104.343 290.027 C105.853 289.741, 107.29 289.897, 106.568 289.375 M106.568 289.375 C106.247 288.875, 108.731 288.376, 107.974 287.482 M106.568 289.375 C108.524 287.038, 106.115 288.351, 107.974 287.482 M107.974 287.482 C109.443 285.29, 108.717 284.18, 108.472 284.517 M107.974 287.482 C107.326 288.177, 108.111 283.647, 108.472 284.517 M108.472 284.517 C108.314 282.159, 108.06 282.302, 107.987 281.525 M108.472 284.517 C108.644 283.355, 106.053 280.627, 107.987 281.525 M107.987 281.525 C107.184 282.288, 105.378 281.882, 106.58 279.544 M107.987 281.525 C109.47 278.863, 108.134 280.777, 106.58 279.544 M106.58 279.544 C106.625 278.137, 105.429 279.805, 104.343 278.84 M106.58 279.544 C103.853 278.274, 103.175 277.716, 104.343 278.84 M104.343 278.84 C102.47 280.541, 102.65 277.972, 102.08 279.569 M104.343 278.84 C104.546 279.408, 104.154 278.781, 102.08 279.569 M102.08 279.569 C99.956 279.786, 99.889 278.733, 100.687 281.563 M102.08 279.569 C100.839 282.111, 102.713 281.699, 100.687 281.563 M100.687 281.563 C101.295 283.234, 98.493 282.983, 100.214 284.517 M100.687 281.563 C99.615 281.137, 99.536 282.535, 100.214 284.517 M100.214 284.517 C101.089 284.164, 100.352 287.867, 100.687 287.457 M100.214 284.517 C101.413 287.627, 98.133 286.896, 100.687 287.457 M100.687 287.457 C99.375 287.706, 103.155 290.74, 102.08 289.362 M100.687 287.457 C98.74 286.807, 99.766 290.847, 102.08 289.362 M102.08 289.362 C101.895 289.712, 105.334 289.821, 104.343 290.027 M102.08 289.362 C103.845 290.545, 103.7 288.612, 104.343 290.027 M104.343 290.027 C104.343 290.027, 104.343 290.027, 104.343 290.027 M104.343 290.027 C104.343 290.027, 104.343 290.027, 104.343 290.027 M123.609 283.046 M123.609 283.046 C122.885 287.466, 123.556 291.898, 123.609 294.399 M123.609 283.046 C123.77 285.77, 123.151 289.462, 123.609 294.399 M123.609 294.399 C122.466 294.868, 121.484 294.245, 118.163 294.399 M123.609 294.399 C122.183 294.708, 121.193 294.175, 118.163 294.399 M118.163 294.399 C119.139 285.797, 117.75 275.219, 118.163 268.217 M118.163 294.399 C117.794 286.647, 118.37 280.151, 118.163 268.217 M118.163 268.217 C119.405 268.757, 120.452 268.357, 123.455 268.217 M118.163 268.217 C119.742 268.281, 121.074 268.332, 123.455 268.217 M123.455 268.217 C122.552 271.273, 123.083 272.388, 123.455 278.227 M123.455 268.217 C123.018 271.723, 123.341 276.08, 123.455 278.227 M123.455 278.227 C123.546 278.22, 123.622 278.229, 123.685 278.227 M123.455 278.227 C123.508 278.227, 123.544 278.226, 123.685 278.227 M123.685 278.227 C125.73 278.033, 122.945 275.432, 125.833 275.504 M123.685 278.227 C126.086 277.158, 125.884 275.713, 125.833 275.504 M125.833 275.504 C127.288 273.412, 128.169 274.937, 129.553 274.507 M125.833 275.504 C125.785 272.845, 126.839 272.332, 129.553 274.507 M129.553 274.507 C129.829 275.69, 130.147 272.966, 133.12 275.402 M129.553 274.507 C128.662 273.226, 130.447 273.336, 133.12 275.402 M133.12 275.402 C134.181 277.366, 136.188 277.331, 135.498 277.946 M133.12 275.402 C135.965 275.932, 135.5 275.731, 135.498 277.946 M135.498 277.946 C134.324 280.912, 136.821 281.532, 136.342 281.896 M135.498 277.946 C135.857 277.188, 137.89 278.467, 136.342 281.896 M136.342 281.896 C135.52 285.835, 136.293 287.977, 136.342 294.399 M136.342 281.896 C136.914 287.451, 136.113 292.361, 136.342 294.399 M136.342 294.399 C135.103 294.644, 133.583 293.985, 130.896 294.399 M136.342 294.399 C135.053 294.421, 133.852 294.335, 130.896 294.399 M130.896 294.399 C132.043 290.885, 130.666 287.942, 130.896 282.867 M130.896 294.399 C131.371 292.46, 130.639 289.102, 130.896 282.867 M130.896 282.867 C130.741 280.284, 130.084 279.735, 129.975 280.042 M130.896 282.867 C131.714 282.094, 130.888 281.409, 129.975 280.042 M129.975 280.042 C128.88 280.615, 126.61 277.057, 127.393 279.032 M129.975 280.042 C127.676 279.413, 130.309 278.023, 127.393 279.032 M127.393 279.032 C125.592 278.924, 126.178 279.866, 125.424 279.505 M127.393 279.032 C125.702 276.902, 128.087 280.745, 125.424 279.505 M125.424 279.505 C123.485 279.783, 125.859 281.233, 124.095 280.886 M125.424 279.505 C126.648 278.675, 124.517 279.105, 124.095 280.886 M124.095 280.886 C122.705 279.904, 124.574 280.317, 123.609 283.046 M124.095 280.886 C122.84 281.582, 124.576 280.752, 123.609 283.046 M123.609 283.046 C123.609 283.046, 123.609 283.046, 123.609 283.046 M123.609 283.046 C123.609 283.046, 123.609 283.046, 123.609 283.046 M143.811 294.731 M143.811 294.731 C142.615 296.488, 140.484 296.403, 141.638 293.836 M143.811 294.731 C143.999 295.409, 142.964 294.411, 141.638 293.836 M141.638 293.836 C142.109 292.261, 140.933 291.886, 140.743 291.663 M141.638 293.836 C139.475 291.494, 138.683 294.097, 140.743 291.663 M140.743 291.663 C141.65 290.925, 142.568 289.261, 141.638 289.515 M140.743 291.663 C140.284 288.533, 142.881 291.331, 141.638 289.515 M141.638 289.515 C140.823 289.947, 144.817 287.992, 143.811 288.62 M141.638 289.515 C143.797 287.254, 142.324 290.299, 143.811 288.62 M143.811 288.62 C143.489 289.803, 143.895 288.745, 145.959 289.515 M143.811 288.62 C144.676 288.909, 144.876 287.08, 145.959 289.515 M145.959 289.515 C147.909 289.232, 147.332 289.729, 146.879 291.663 M145.959 289.515 C147.581 288.32, 146.312 292.258, 146.879 291.663 M146.879 291.663 C145.515 291.371, 145.627 291.412, 146.444 293.21 M146.879 291.663 C145.889 293.678, 145.497 294.874, 146.444 293.21 M146.444 293.21 C146.754 291.699, 145.33 295.11, 145.332 294.322 M146.444 293.21 C148.238 292.262, 147.987 293.102, 145.332 294.322 M145.332 294.322 C143.914 296.43, 145.48 295.672, 143.811 294.731 M145.332 294.322 C143.319 293.997, 144.365 293.241, 143.811 294.731 M143.811 294.731 C143.811 294.731, 143.811 294.731, 143.811 294.731 M143.811 294.731 C143.811 294.731, 143.811 294.731, 143.811 294.731 M151.35 274.762 M151.35 274.762 C152.508 274.705, 154.339 275.284, 156.796 274.762 M151.35 274.762 C152.743 274.731, 153.622 274.915, 156.796 274.762 M156.796 274.762 C156.385 280.237, 155.958 285.077, 156.796 295.37 M156.796 274.762 C157.48 280.579, 157.62 288.046, 156.796 295.37 M156.796 295.37 C157.16 295.819, 157.335 296.782, 155.901 299.052 M156.796 295.37 C158.464 296.799, 155.194 298.062, 155.901 299.052 M155.901 299.052 C155.466 300.338, 153.337 300.978, 153.332 301.11 M155.901 299.052 C154.89 297.938, 153.213 301.81, 153.332 301.11 M153.332 301.11 C152.374 303.18, 151.338 299.816, 149.356 301.762 M153.332 301.11 C152.115 299.501, 151.92 302.049, 149.356 301.762 M149.356 301.762 C147.603 301.594, 147.891 302.111, 148.819 301.75 M149.356 301.762 C149.69 300.383, 147.806 302.239, 148.819 301.75 M148.819 301.75 C147.599 300.558, 149.649 303.214, 148.257 301.737 M148.819 301.75 C150.083 302.526, 147.983 303.749, 148.257 301.737 M148.257 301.737 C148.092 301.059, 147.969 300.119, 148.257 297.48 M148.257 301.737 C148.253 300.595, 148.441 299.108, 148.257 297.48 M148.257 297.48 C150.066 298.316, 149.35 297.826, 148.64 297.492 M148.257 297.48 C147.55 296.527, 148.008 297.681, 148.64 297.492 M148.64 297.492 C148.322 298.861, 148.801 297.575, 148.972 297.505 M148.64 297.492 C149.432 297.743, 147.987 297.106, 148.972 297.505 M148.972 297.505 C148.852 296.058, 148.574 295.814, 150.813 296.943 M148.972 297.505 C149.962 297.031, 150.864 297.271, 150.813 296.943 M150.813 296.943 C149.202 294.914, 150.734 296.834, 151.35 295.281 M150.813 296.943 C153.029 294.681, 149.768 293.888, 151.35 295.281 M151.35 295.281 C153.314 286.213, 151.034 279.187, 151.35 274.762 M151.35 295.281 C151.517 288.271, 151.382 282.048, 151.35 274.762 M151.35 274.762 C151.35 274.762, 151.35 274.762, 151.35 274.762 M151.35 274.762 C151.35 274.762, 151.35 274.762, 151.35 274.762 M154.06 272.231 M154.06 272.231 C154.29 271.016, 151.482 270.793, 151.989 271.426 M154.06 272.231 C152.533 271.469, 150.477 273.735, 151.989 271.426 M151.989 271.426 C150.556 270.521, 152.661 270.203, 151.12 269.47 M151.989 271.426 C150.343 272.901, 152.565 272.142, 151.12 269.47 M151.12 269.47 C152.175 267.901, 151.6 266.664, 151.989 267.539 M151.12 269.47 C149.726 267.499, 151.646 269.892, 151.989 267.539 M151.989 267.539 C151.386 265.884, 153.854 268.443, 154.06 266.721 M151.989 267.539 C153.754 268.39, 153.745 265.217, 154.06 266.721 M154.06 266.721 C153.67 266.298, 156.2 267.682, 156.144 267.539 M154.06 266.721 C156.723 265.143, 157.22 266.529, 156.144 267.539 M156.144 267.539 C156.686 267.493, 158.17 268.147, 157.014 269.47 M156.144 267.539 C157.042 268.808, 154.77 271.016, 157.014 269.47 M157.014 269.47 C156.549 272.125, 158.166 269.559, 156.144 271.426 M157.014 269.47 C158.367 271.924, 157.79 269.853, 156.144 271.426 M156.144 271.426 C156.578 271.345, 156.545 272.922, 154.06 272.231 M156.144 271.426 C154.023 271.304, 154.228 272.737, 154.06 272.231 M154.06 272.231 C154.06 272.231, 154.06 272.231, 154.06 272.231 M154.06 272.231 C154.06 272.231, 154.06 272.231, 154.06 272.231 M177.497 280.362 M177.497 280.362 C175.843 280.411, 173.609 281.053, 172.511 280.669 M177.497 280.362 C176.123 280.58, 174.654 280.768, 172.511 280.669 M172.511 280.669 C170.878 281.714, 171.608 280.446, 171.961 279.518 M172.511 280.669 C170.647 278.646, 173.2 281.98, 171.961 279.518 M171.961 279.518 C171.87 280.441, 170.488 278.847, 170.849 278.687 M171.961 279.518 C169.645 280.054, 170.038 280.679, 170.849 278.687 M170.849 278.687 C169.629 280.4, 167.974 279.495, 169.226 278.367 M170.849 278.687 C168.887 278.479, 169.756 278.478, 169.226 278.367 M169.226 278.367 C168.172 279.632, 168.652 277.638, 167.091 278.904 M169.226 278.367 C170.127 279.282, 167.327 280.337, 167.091 278.904 M167.091 278.904 C164.772 280.149, 166.746 277.796, 166.221 280.311 M167.091 278.904 C166.943 278.608, 165.202 279.282, 166.221 280.311 M166.221 280.311 C166.214 279.738, 168.24 282.269, 166.784 281.5 M166.221 280.311 C166.599 279.721, 168.419 280.83, 166.784 281.5 M166.784 281.5 C169.064 283.708, 169.201 281.523, 168.714 282.279 M166.784 281.5 C168.966 280.282, 166.453 283.885, 168.714 282.279 M168.714 282.279 C169.647 282.072, 169.884 282.852, 172.268 282.995 M168.714 282.279 C169.861 282.441, 170.775 282.825, 172.268 282.995 M172.268 282.995 C174.631 283.431, 176.093 283.506, 176.538 284.887 M172.268 282.995 C173.416 284.746, 177.459 282.984, 176.538 284.887 M176.538 284.887 C179.394 286.655, 179.66 288.154, 177.944 288.313 M176.538 284.887 C177.149 285.116, 178.99 286.316, 177.944 288.313 M177.944 288.313 C176.131 287.954, 178.23 291.444, 176.807 291.701 M177.944 288.313 C175.927 288.585, 175.957 290.582, 176.807 291.701 M176.807 291.701 C176.152 293.962, 175.43 292.826, 173.713 293.977 M176.807 291.701 C178.297 294.581, 174.251 294.425, 173.713 293.977 M173.713 293.977 C172.193 295.216, 172.132 296.1, 169.2 294.782 M173.713 293.977 C172.656 292.556, 172.767 296.792, 169.2 294.782 M169.2 294.782 C166.728 294.854, 163.568 294.465, 162.987 293.159 M169.2 294.782 C165.478 296.134, 163.719 295.44, 162.987 293.159 M162.987 293.159 C162.803 290.323, 161.249 291.764, 160.29 288.71 M162.987 293.159 C162.178 290.822, 159.849 288.651, 160.29 288.71 M160.29 288.71 C162.037 288.034, 163.622 288.844, 165.646 288.429 M160.29 288.71 C161.984 288.751, 164.07 288.37, 165.646 288.429 M165.646 288.429 C164.705 288.618, 165.954 289.776, 166.822 290.244 M165.646 288.429 C166.79 291.355, 168.128 288.035, 166.822 290.244 M166.822 290.244 C166.267 289.047, 167.203 289.661, 169.213 290.857 M166.822 290.244 C167.912 290.362, 169.985 289.94, 169.213 290.857 M169.213 290.857 C170.095 289.356, 169.458 290.136, 171.514 290.308 M169.213 290.857 C168.623 291.377, 172.371 288.993, 171.514 290.308 M171.514 290.308 C172.785 289.168, 170.489 291.156, 172.409 288.863 M171.514 290.308 C171.728 291.76, 172.853 290.101, 172.409 288.863 M172.409 288.863 C171.288 289.887, 174.037 287.156, 171.782 287.649 M172.409 288.863 C173.629 286.566, 174.459 286.56, 171.782 287.649 M171.782 287.649 C170.278 286.52, 169.35 286.681, 169.89 286.907 M171.782 287.649 C172.19 288.716, 172.534 285.2, 169.89 286.907 M169.89 286.907 C168.397 286.802, 167.376 286.198, 166.49 286.23 M169.89 286.907 C169.135 286.554, 168.293 286.619, 166.49 286.23 M166.49 286.23 C165.861 285.893, 162.469 283.806, 162.207 284.235 M166.49 286.23 C163.633 285.734, 160.878 287.329, 162.207 284.235 M162.207 284.235 C159.637 283.575, 160.794 283.134, 160.814 280.617 M162.207 284.235 C163.174 284.323, 159.324 281.458, 160.814 280.617 M160.814 280.617 C160.947 279.819, 160.144 279.841, 161.836 277.357 M160.814 280.617 C158.706 280.951, 161.086 276.409, 161.836 277.357 M161.836 277.357 C161.952 275.088, 163.875 277.398, 164.738 275.248 M161.836 277.357 C164.524 277.103, 164.827 275.521, 164.738 275.248 M164.738 275.248 C166.464 273.112, 168.781 275.319, 169.136 274.507 M164.738 275.248 C163.866 272.722, 169.517 273.179, 169.136 274.507 M169.136 274.507 C170.509 273.562, 174.775 274.094, 174.991 276.079 M169.136 274.507 C170.748 273.651, 174.225 275.875, 174.991 276.079 M174.991 276.079 C176.089 277.545, 178.509 277.89, 177.497 280.362 M174.991 276.079 C178.296 279.109, 178.763 276.436, 177.497 280.362 M177.497 280.362 C177.497 280.362, 177.497 280.362, 177.497 280.362 M177.497 280.362 C177.497 280.362, 177.497 280.362, 177.497 280.362 M189.808 294.399 M189.808 294.399 C191.607 283.365, 188.645 273.87, 189.808 268.217 M189.808 294.399 C190.602 284.675, 188.993 276.213, 189.808 268.217 M189.808 268.217 C193.414 267.642, 197.156 268.304, 200.138 268.217 M189.808 268.217 C193.316 268.418, 197.113 268.279, 200.138 268.217 M200.138 268.217 C203.957 268.635, 204.545 270.022, 205.2 269.278 M200.138 268.217 C200.852 268.339, 202.251 269.145, 205.2 269.278 M205.2 269.278 C207.026 270.891, 205.795 270.097, 208.409 272.257 M205.2 269.278 C205.365 271.413, 209.508 272.41, 208.409 272.257 M208.409 272.257 C208.139 272.415, 209.992 276.45, 209.521 276.769 M208.409 272.257 C207.416 271.607, 210.873 276.749, 209.521 276.769 M209.521 276.769 C207.93 277.222, 208.693 278.49, 208.396 281.257 M209.521 276.769 C210.716 279.553, 207.825 280.494, 208.396 281.257 M208.396 281.257 C208.772 282.986, 206.126 283.154, 205.136 284.12 M208.396 281.257 C208.352 280.919, 205.458 284.106, 205.136 284.12 M205.136 284.12 C202.015 286.713, 200.188 286.799, 199.997 285.117 M205.136 284.12 C205.314 285.249, 203.855 285.785, 199.997 285.117 M199.997 285.117 C198.923 284.859, 196.722 285.56, 193.081 285.117 M199.997 285.117 C197.483 285.218, 194.951 285.227, 193.081 285.117 M193.081 285.117 C192.682 283.781, 193.248 281.697, 193.081 280.669 M193.081 285.117 C193.065 283.554, 193.048 281.64, 193.081 280.669 M193.081 280.669 C194.085 280.287, 196.232 280.353, 199.102 280.669 M193.081 280.669 C195.691 280.675, 197.894 280.734, 199.102 280.669 M199.102 280.669 C201.755 278.904, 201.952 279.658, 201.736 280.234 M199.102 280.669 C199.759 281.763, 200.054 278.591, 201.736 280.234 M201.736 280.234 C201.642 280.836, 203.629 277.629, 203.295 278.93 M201.736 280.234 C201.002 278.084, 204.532 280.322, 203.295 278.93 M203.295 278.93 C202.726 278.822, 201.999 275.852, 203.819 276.769 M203.295 278.93 C202.088 279.674, 202.517 279.572, 203.819 276.769 M203.819 276.769 C203.246 277.725, 201.878 274.361, 203.295 274.571 M203.819 276.769 C204.306 274.857, 205.512 276.253, 203.295 274.571 M203.295 274.571 C204.184 271.981, 202.748 274.658, 201.723 273.215 M203.295 274.571 C203.183 272.842, 203.766 272.179, 201.723 273.215 M201.723 273.215 C199.122 271.103, 198.52 273.632, 199.076 272.742 M201.723 273.215 C198.885 273.751, 199.477 271.698, 199.076 272.742 M199.076 272.742 C198.583 272.533, 197.087 272.564, 195.344 272.742 M199.076 272.742 C198.08 272.58, 197.184 272.645, 195.344 272.742 M195.344 272.742 C196.796 277.147, 193.617 283.585, 195.344 294.399 M195.344 272.742 C194.757 280.335, 194.752 289.056, 195.344 294.399 M195.344 294.399 C193.821 294.217, 192.563 294.45, 189.808 294.399 M195.344 294.399 C193.924 294.242, 192.385 294.362, 189.808 294.399 M189.808 294.399 C189.808 294.399, 189.808 294.399, 189.808 294.399 M189.808 294.399 C189.808 294.399, 189.808 294.399, 189.808 294.399 M203.947 282.484 M203.947 282.484 C206.18 285.38, 207.131 289.13, 210.454 294.399 M203.947 282.484 C205.948 285.447, 207.962 289.14, 210.454 294.399 M210.454 294.399 C208.173 294.247, 206.363 293.963, 204.344 294.399 M210.454 294.399 C208.27 294.196, 206.256 294.605, 204.344 294.399 M204.344 294.399 C201.928 289.652, 200.024 286.909, 197.977 282.484 M204.344 294.399 C202.532 291.211, 200.318 287.078, 197.977 282.484 M197.977 282.484 C200.371 282.134, 201.363 282.18, 203.947 282.484 M197.977 282.484 C200.233 282.618, 202.252 282.211, 203.947 282.484 M203.947 282.484 C203.947 282.484, 203.947 282.484, 203.947 282.484 M203.947 282.484 C203.947 282.484, 203.947 282.484, 203.947 282.484 M221.963 294.782 M221.963 294.782 C221.867 294.49, 218.335 293.778, 216.747 293.555 M221.963 294.782 C219.544 295.701, 217.744 295.424, 216.747 293.555 M216.747 293.555 C215.037 293.94, 212.558 289.572, 213.398 290.052 M216.747 293.555 C217.39 294.952, 213.447 291.455, 213.398 290.052 M213.398 290.052 C212.766 287.169, 213.498 288.264, 212.222 284.67 M213.398 290.052 C214.394 288.628, 210.372 285.977, 212.222 284.67 M212.222 284.67 C211.246 280.669, 213.618 281.014, 213.398 279.352 M212.222 284.67 C212.961 281.274, 213.116 279.442, 213.398 279.352 M213.398 279.352 C215.289 279.203, 213.673 276.131, 216.709 275.785 M213.398 279.352 C215.709 276.54, 213.775 278.834, 216.709 275.785 M216.709 275.785 C219.526 273.309, 218.367 276.417, 221.746 274.507 M216.709 275.785 C217.616 273.418, 217.851 276.741, 221.746 274.507 M221.746 274.507 C223.61 273.108, 223.909 273.259, 225.364 275.133 M221.746 274.507 C224.106 274.838, 226.355 273.152, 225.364 275.133 M225.364 275.133 C227.399 275.865, 227.822 274.342, 228.304 276.987 M225.364 275.133 C224.918 275.7, 227.514 274.49, 228.304 276.987 M228.304 276.987 C230.108 276.341, 228.79 277.712, 230.273 280.106 M228.304 276.987 C228.351 279.203, 230.616 277.676, 230.273 280.106 M230.273 280.106 C231.207 280.385, 232.15 281.379, 230.976 284.478 M230.273 280.106 C230.753 279.132, 229.019 283.667, 230.976 284.478 M230.976 284.478 C231.015 284.898, 230.937 285.385, 230.976 285.974 M230.976 284.478 C230.919 284.992, 230.963 285.486, 230.976 285.974 M230.976 285.974 C227.215 287.416, 221.023 286.003, 214.395 285.974 M230.976 285.974 C226.122 286.266, 220.908 285.655, 214.395 285.974 M214.395 285.974 C214.308 285.096, 214.652 284.096, 214.395 282.599 M214.395 285.974 C214.294 285.074, 214.481 284.086, 214.395 282.599 M214.395 282.599 C219.05 282.279, 221.38 283.625, 225.85 282.599 M214.395 282.599 C217.743 282.691, 221.848 282.78, 225.85 282.599 M225.85 282.599 C224.39 280.546, 225.589 282.263, 225.338 280.515 M225.85 282.599 C223.964 281.967, 225.248 282.227, 225.338 280.515 M225.338 280.515 C223.776 281.197, 223.657 280.327, 223.919 279.096 M225.338 280.515 C224.274 282.048, 222.502 279.539, 223.919 279.096 M223.919 279.096 C223.883 280.366, 223.968 279.431, 221.835 278.572 M223.919 279.096 C223.463 280.468, 224.409 276.75, 221.835 278.572 M221.835 278.572 C219.808 278.718, 218.999 279.415, 219.636 279.147 M221.835 278.572 C222.036 280.513, 219.113 278.526, 219.636 279.147 M219.636 279.147 C220.831 279.261, 218.437 278.665, 218.154 280.669 M219.636 279.147 C219.686 281.541, 218.201 279.316, 218.154 280.669 M218.154 280.669 C218.858 281.473, 216.077 283.05, 217.604 282.778 M218.154 280.669 C217.887 281.675, 219.867 283.902, 217.604 282.778 M217.604 282.778 C217.89 284.116, 217.327 285.218, 217.604 285.987 M217.604 282.778 C217.783 283.876, 217.494 285.295, 217.604 285.987 M217.604 285.987 C216.779 287.673, 218.44 286.485, 218.141 288.505 M217.604 285.987 C215.797 287.524, 219.819 288.275, 218.141 288.505 M218.141 288.505 C219.843 290.474, 217.854 291.734, 219.688 290.142 M218.141 288.505 C217.508 290.46, 218.035 287.838, 219.688 290.142 M219.688 290.142 C219.885 288.64, 220.984 292.627, 222.053 290.717 M219.688 290.142 C221.67 292.102, 221.413 288.911, 222.053 290.717 M222.053 290.717 C223.794 292.266, 222.558 292.496, 223.715 290.461 M222.053 290.717 C223.202 288.975, 221.928 290.099, 223.715 290.461 M223.715 290.461 C222.868 290.109, 223.137 291.019, 225.006 289.694 M223.715 290.461 C225.157 291.524, 223.231 290.504, 225.006 289.694 M225.006 289.694 C226.256 288.241, 225.466 289.742, 225.824 288.441 M225.006 289.694 C223.082 291.559, 224.273 288.852, 225.824 288.441 M225.824 288.441 C227.799 288.875, 229.268 289.113, 230.861 288.774 M225.824 288.441 C227.4 288.549, 229.446 288.542, 230.861 288.774 M230.861 288.774 C229.32 288.574, 228.275 290.723, 229.288 291.944 M230.861 288.774 C229.602 288.047, 228.201 291.09, 229.288 291.944 M229.288 291.944 C230.406 292.374, 225.853 292.693, 226.246 294.041 M229.288 291.944 C227.631 291.726, 228.884 291.314, 226.246 294.041 M226.246 294.041 C223.694 292.977, 223.579 294.875, 221.963 294.782 M226.246 294.041 C224.898 294.912, 224.233 292.616, 221.963 294.782 M221.963 294.782 C221.963 294.782, 221.963 294.782, 221.963 294.782 M221.963 294.782 C221.963 294.782, 221.963 294.782, 221.963 294.782 M240.129 294.769 M240.129 294.769 C239.793 294.84, 237.013 294.767, 236.78 294.117 M240.129 294.769 C240.923 295.961, 238.156 293.641, 236.78 294.117 M236.78 294.117 C236.615 293.681, 233.802 291.989, 234.453 292.161 M236.78 294.117 C233.882 294.126, 233.892 293.806, 234.453 292.161 M234.453 292.161 C232.253 293.12, 232.837 290.192, 233.609 288.914 M234.453 292.161 C235.132 290.107, 232.451 290.822, 233.609 288.914 M233.609 288.914 C234.899 289.183, 235.042 285.405, 234.21 286.166 M233.609 288.914 C234.204 286.617, 234.156 284.71, 234.21 286.166 M234.21 286.166 C235.687 285.035, 234.604 283.473, 235.847 284.376 M234.21 286.166 C233.483 286.971, 236.819 286.72, 235.847 284.376 M235.847 284.376 C237.731 281.982, 239.099 283.668, 238.199 283.353 M235.847 284.376 C237.417 282.193, 239.593 282.844, 238.199 283.353 M238.199 283.353 C239.37 284.491, 240.778 281.405, 240.986 282.867 M238.199 283.353 C240.827 282.603, 239.858 281.142, 240.986 282.867 M240.986 282.867 C242.136 283.667, 241.668 283.2, 243.747 282.535 M240.986 282.867 C243.656 284.117, 241.438 281.663, 243.747 282.535 M243.747 282.535 C243.564 282.673, 243.719 283.413, 245.269 282.049 M243.747 282.535 C244.328 282.409, 246.939 280.21, 245.269 282.049 M245.269 282.049 C247.223 282.93, 245 281.877, 245.742 281.103 M245.269 282.049 C247.771 283.955, 246.409 281.499, 245.742 281.103 M245.742 281.103 C245.748 281.081, 245.735 281.06, 245.742 281.027 M245.742 281.103 C245.745 281.072, 245.745 281.045, 245.742 281.027 M245.742 281.027 C245.96 280.739, 244.601 278.357, 244.975 279.147 M245.742 281.027 C243.6 278.771, 247.469 278.753, 244.975 279.147 M244.975 279.147 C245.925 276.91, 243.242 280.458, 242.827 278.482 M244.975 279.147 C242.45 276.44, 242.14 276.363, 242.827 278.482 M242.827 278.482 C240.707 280.35, 239.211 280.047, 240.487 279.134 M242.827 278.482 C243.611 280.095, 240.962 278.277, 240.487 279.134 M240.487 279.134 C240.399 281.213, 238.116 279.647, 239.337 280.745 M240.487 279.134 C240.905 278.901, 238.208 281.477, 239.337 280.745 M239.337 280.745 C237.934 281.049, 236.212 280.433, 234.3 280.336 M239.337 280.745 C237.487 280.643, 235.634 280.526, 234.3 280.336 M234.3 280.336 C236.481 278.305, 235.301 277.802, 235.808 277.242 M234.3 280.336 C236.04 279.561, 235.116 276.14, 235.808 277.242 M235.808 277.242 C238.329 276.206, 238.49 275.842, 238.71 275.223 M235.808 277.242 C235.911 275.753, 235.448 277.17, 238.71 275.223 M238.71 275.223 C238.479 274.088, 240.802 274.027, 242.852 274.507 M238.71 275.223 C241.766 275.388, 239.209 276.603, 242.852 274.507 M242.852 274.507 C244.452 275.928, 245.106 274.914, 245.984 274.89 M242.852 274.507 C243.858 273.215, 244.39 276.356, 245.984 274.89 M245.984 274.89 C245.623 275.705, 248.432 275.198, 248.656 276.079 M245.984 274.89 C244.799 273.26, 248.326 277.325, 248.656 276.079 M248.656 276.079 C249.743 277.071, 249.255 276.799, 250.51 278.15 M248.656 276.079 C249.203 275.568, 252.209 276.498, 250.51 278.15 M250.51 278.15 C250.254 277.024, 250.084 279.895, 251.188 281.154 M250.51 278.15 C250.112 278.59, 250.043 278.241, 251.188 281.154 M251.188 281.154 C251.5 285.339, 251.733 288.374, 251.188 294.399 M251.188 281.154 C251.454 285.401, 250.568 289.034, 251.188 294.399 M251.188 294.399 C249.158 294.533, 246.606 294.281, 246.023 294.399 M251.188 294.399 C250.006 294.535, 248.606 294.282, 246.023 294.399 M246.023 294.399 C246.195 293.406, 245.841 292.904, 246.023 291.676 M246.023 294.399 C245.99 293.46, 245.996 292.319, 246.023 291.676 M246.023 291.676 C245.97 291.687, 245.935 291.684, 245.869 291.676 M246.023 291.676 C245.985 291.671, 245.957 291.675, 245.869 291.676 M245.869 291.676 C245.234 291.629, 243.242 293.055, 244.604 293.299 M245.869 291.676 C245.276 292.804, 245.356 295.022, 244.604 293.299 M244.604 293.299 C244.801 293.097, 241.407 293.477, 242.699 294.386 M244.604 293.299 C243.036 292.105, 243.722 295.594, 242.699 294.386 M242.699 294.386 C241.884 295.97, 240.547 293.968, 240.129 294.769 M242.699 294.386 C242.137 296.767, 239.59 294.884, 240.129 294.769 M240.129 294.769 C240.129 294.769, 240.129 294.769, 240.129 294.769 M240.129 294.769 C240.129 294.769, 240.129 294.769, 240.129 294.769 M241.689 291.011 M241.689 291.011 C243.332 289.823, 241.696 289.819, 243.811 290.538 M241.689 291.011 C243.485 290.351, 244.847 292.767, 243.811 290.538 M243.811 290.538 C244.79 288.536, 243.477 291.702, 245.256 289.234 M243.811 290.538 C245.349 290.33, 242.965 290.347, 245.256 289.234 M245.256 289.234 C245.407 289.713, 246.101 289.48, 245.78 287.38 M245.256 289.234 C247.667 290.334, 244.681 289.266, 245.78 287.38 M245.78 287.38 C245.907 286.787, 245.933 285.992, 245.78 285.296 M245.78 287.38 C245.687 286.892, 245.755 286.551, 245.78 285.296 M245.78 285.296 C245.556 285.773, 245.152 286.736, 245.077 285.603 M245.78 285.296 C247.294 286.867, 247.136 284.4, 245.077 285.603 M245.077 285.603 C245.611 285.905, 242.939 284.948, 244.092 285.846 M245.077 285.603 C245.379 285.584, 242.919 286.225, 244.092 285.846 M244.092 285.846 C244.918 287.682, 245.195 284.969, 242.993 286.038 M244.092 285.846 C243.793 287.477, 241.365 285.284, 242.993 286.038 M242.993 286.038 C242.687 286.116, 242.48 286.042, 241.996 286.179 M242.993 286.038 C242.608 286.135, 242.265 286.165, 241.996 286.179 M241.996 286.179 C242.484 284.454, 239.88 285.263, 240.321 286.626 M241.996 286.179 C241.067 288.3, 239.897 287.557, 240.321 286.626 M240.321 286.626 C239.454 285.987, 237.719 285.233, 239.209 287.457 M240.321 286.626 C239.148 286.626, 241.591 287.194, 239.209 287.457 M239.209 287.457 C238.737 287.084, 239.885 286.707, 238.813 288.735 M239.209 287.457 C240.264 288.742, 238.16 289.576, 238.813 288.735 M238.813 288.735 C240.638 289.512, 240.787 289.224, 239.618 290.436 M238.813 288.735 C238.698 289.798, 240.206 289.315, 239.618 290.436 M239.618 290.436 C239.658 290.922, 239.183 291.192, 241.689 291.011 M239.618 290.436 C238.024 291.977, 239.136 291.415, 241.689 291.011 M241.689 291.011 C241.689 291.011, 241.689 291.011, 241.689 291.011 M241.689 291.011 C241.689 291.011, 241.689 291.011, 241.689 291.011 M264.285 294.782 M264.285 294.782 C261.033 294.781, 260.681 294.811, 259.095 293.504 M264.285 294.782 C262.073 296.041, 258.948 294.891, 259.095 293.504 M259.095 293.504 C255.702 292.462, 255.307 290.479, 255.771 289.924 M259.095 293.504 C259.595 293.595, 256.046 293.651, 255.771 289.924 M255.771 289.924 C254.593 286.434, 256.133 285.986, 254.62 284.657 M255.771 289.924 C255.822 286.646, 255.66 286.778, 254.62 284.657 M254.62 284.657 C253.517 281.137, 254.65 282.27, 255.783 279.365 M254.62 284.657 C253.359 284.26, 256.726 279.581, 255.783 279.365 M255.783 279.365 C256.459 277.696, 258.698 276.453, 259.12 275.798 M255.783 279.365 C258.8 279.904, 257.359 274.366, 259.12 275.798 M259.12 275.798 C260.348 275.589, 263.663 274.012, 264.259 274.507 M259.12 275.798 C258.648 275.105, 259.978 273.701, 264.259 274.507 M264.259 274.507 C267.932 274.16, 266.784 274.858, 268.759 275.44 M264.259 274.507 C265.68 274.888, 267.408 274.486, 268.759 275.44 M268.759 275.44 C270.217 276.142, 271.38 278.379, 271.815 278.061 M268.759 275.44 C271.656 274.459, 269.27 276.031, 271.815 278.061 M271.815 278.061 C274.168 278.719, 273.949 281.573, 273.055 282.024 M271.815 278.061 C273.945 278.111, 271.315 280.252, 273.055 282.024 M273.055 282.024 C271.431 282.469, 269.119 282.465, 267.916 282.024 M273.055 282.024 C271.536 282.12, 269.916 281.977, 267.916 282.024 M267.916 282.024 C266.335 282.087, 267.595 279.323, 266.765 279.659 M267.916 282.024 C267.21 279.093, 268.484 279.87, 266.765 279.659 M266.765 279.659 C266.073 278.295, 267.167 277.686, 264.349 278.751 M266.765 279.659 C267.81 277.926, 263.111 280.412, 264.349 278.751 M264.349 278.751 C263.488 280.322, 264.249 280.419, 262.137 279.441 M264.349 278.751 C262.86 277.21, 263.936 278.792, 262.137 279.441 M262.137 279.441 C260.471 279.93, 262.142 282.151, 260.68 281.423 M262.137 279.441 C261.935 282.034, 261.701 281.949, 260.68 281.423 M260.68 281.423 C258.9 281.42, 260.879 284.084, 260.156 284.58 M260.68 281.423 C258.274 283.366, 258.116 282.079, 260.156 284.58 M260.156 284.58 C259.488 287.369, 262.128 285.525, 260.667 287.777 M260.156 284.58 C258.845 285.329, 259.834 285.872, 260.667 287.777 M260.667 287.777 C260.344 287.941, 260.192 289.933, 262.137 289.784 M260.667 287.777 C260.103 288.598, 262.394 288.949, 262.137 289.784 M262.137 289.784 C261.533 289.805, 263.762 290.25, 264.349 290.474 M262.137 289.784 C264.428 288.505, 262.089 288.595, 264.349 290.474 M264.349 290.474 C263.42 288.59, 265.147 289.42, 266.024 290.09 M264.349 290.474 C264.951 291.426, 267.795 291.254, 266.024 290.09 M266.024 290.09 C265.487 291.394, 268.548 291.309, 267.264 288.978 M266.024 290.09 C265.204 291.47, 268.38 289.859, 267.264 288.978 M267.264 288.978 C266.203 287.805, 268.972 287.524, 267.916 287.201 M267.264 288.978 C266.942 287.137, 266.458 286.981, 267.916 287.201 M267.916 287.201 C269.412 287.113, 270.648 287.293, 273.055 287.201 M267.916 287.201 C268.897 287.067, 270.199 287.002, 273.055 287.201 M273.055 287.201 C273.879 289.441, 273.866 288.449, 271.828 291.164 M273.055 287.201 C274.557 287.424, 274.638 289.579, 271.828 291.164 M271.828 291.164 C269.725 294.135, 270.456 294.445, 268.823 293.823 M271.828 291.164 C271.304 293.441, 269.737 294.734, 268.823 293.823 M268.823 293.823 C265.904 293.937, 266.576 293.029, 264.285 294.782 M268.823 293.823 C266.915 296.024, 268.162 296.795, 264.285 294.782 M264.285 294.782 C264.285 294.782, 264.285 294.782, 264.285 294.782 M264.285 294.782 C264.285 294.782, 264.285 294.782, 264.285 294.782 M286.986 274.762 M286.986 274.762 C287.354 276.428, 287.067 277.416, 286.986 278.853 M286.986 274.762 C286.939 276.13, 287.027 277.193, 286.986 278.853 M286.986 278.853 C282.697 279.527, 278.745 278.234, 275.161 278.853 M286.986 278.853 C283.745 279.216, 281.024 278.739, 275.161 278.853 M275.161 278.853 C275.224 277.644, 275.263 277.036, 275.161 274.762 M275.161 278.853 C274.928 277.535, 275.299 276.271, 275.161 274.762 M275.161 274.762 C277.616 275.848, 282.19 275.292, 286.986 274.762 M275.161 274.762 C279.723 274.371, 284.403 274.628, 286.986 274.762 M286.986 274.762 C286.986 274.762, 286.986 274.762, 286.986 274.762 M286.986 274.762 C286.986 274.762, 286.986 274.762, 286.986 274.762 M277.846 270.058 M277.846 270.058 C279.655 270.304, 280.716 270.063, 283.292 270.058 M277.846 270.058 C279.354 269.904, 280.693 269.853, 283.292 270.058 M283.292 270.058 C282.611 274.808, 284.257 278.975, 283.292 288.365 M283.292 270.058 C282.707 274.599, 282.51 281.228, 283.292 288.365 M283.292 288.365 C283.928 289.698, 282.625 289.054, 283.522 289.541 M283.292 288.365 C284.72 288.487, 284.3 289.755, 283.522 289.541 M283.522 289.541 C282.446 288.04, 283.77 289.717, 284.161 290.116 M283.522 289.541 C281.763 291.824, 283.836 287.904, 284.161 290.116 M284.161 290.116 C283.544 290.714, 283.881 289.01, 285.133 290.282 M284.161 290.116 C285.324 291.232, 284.124 288.108, 285.133 290.282 M285.133 290.282 C284.726 291.119, 284.531 289.364, 285.9 290.218 M285.133 290.282 C283.461 291.518, 283.803 292.254, 285.9 290.218 M285.9 290.218 C287.875 291.882, 285.611 289.134, 286.488 290.103 M285.9 290.218 C285.477 288.948, 284.617 290.324, 286.488 290.103 M286.488 290.103 C286.353 291.808, 286.705 292.991, 287.344 294.156 M286.488 290.103 C286.914 291.472, 287.254 293.059, 287.344 294.156 M287.344 294.156 C287.431 292.902, 284.807 292.511, 286.194 294.45 M287.344 294.156 C287.412 295.51, 286.023 292.406, 286.194 294.45 M286.194 294.45 C286.475 293.757, 283.354 296.525, 284.391 294.667 M286.194 294.45 C283.544 295.281, 283.615 293.075, 284.391 294.667 M284.391 294.667 C282.871 294.149, 281.109 293.193, 280.939 294.143 M284.391 294.667 C282.783 293.264, 282.96 292.404, 280.939 294.143 M280.939 294.143 C280.917 292.927, 280.271 293.551, 278.651 292.277 M280.939 294.143 C280.937 292.526, 277.845 293.318, 278.651 292.277 M278.651 292.277 C279.213 291.279, 276.493 289.995, 277.846 289.08 M278.651 292.277 C276.681 290.552, 279.67 288.901, 277.846 289.08 M277.846 289.08 C276.996 284.827, 276.491 282.969, 277.846 270.058 M277.846 289.08 C277.82 281.133, 278.038 273.385, 277.846 270.058 M277.846 270.058 C277.846 270.058, 277.846 270.058, 277.846 270.058 M277.846 270.058 C277.846 270.058, 277.846 270.058, 277.846 270.058"
              stroke="rgb(0, 216, 255)" stroke-width="1" fill="none"/>
    </g>
</svg>
