<?xml version="1.0" standalone="no"?>
<svg xmlns="http://www.w3.org/2000/svg" xmlns:xlink="http://www.w3.org/1999/xlink" width="454" height="313" stroke-linecap="round"><defs><clipPath id="a_0"><path d="M0 0h454v313H0z"/></clipPath></defs><rect fill="white" width="454" height="313"/><g clip-path="url(#a_0)"><path d="M227.878 144.013 L236.479 140.406 L243.328 136.931 L248.018 129 L248.903 122.742 L246.898 113.937 L243.874 107.652 L237.514 102.004 L228.907 98.079 L218.898 99.987 L212.528 106.104 L208.928 113.164 L206.737 120.505 L208.378 130.406 L213.884 135.945 L220.319 142.123 L228.971 144.396" stroke="none" stroke-width="0" fill="rgb(0, 216, 255)"/><path d="M227.38 143.839 M227.38 143.839 C241.096 143.6, 251.025 133.7, 249.28 121.938 M249.28 121.938 C247.641 111.464, 239.489 101.364, 227.38 100.038 M227.38 100.038 C217.279 100.304, 205.227 109.687, 205.479 121.938 M205.479 121.938 C204.174 132.862, 213.594 144.763, 227.38 143.839 M227.38 143.839 C227.38 143.839, 227.38 143.839, 227.38 143.839" stroke="rgb(0, 216, 255)" stroke-width="1" fill="none"/></g><g clip-path="url(#a_0)"><path d="M227.734 77.246 L255.979 77.301 L283.591 79.653 L297.261 83.238 L316.588 93.585 L336.278 104.679 L340.238 110.312 L343.988 123.719 L341.129 131.732 L338.871 139.384 L324.099 149.692 L299.326 160.646 L270.895 165.832 L227.801 169.272 L188.675 164.97 L159.742 160.757 L146.013 157.173 L129.813 150.568 L118.364 141.101 L112.289 130.539 L110.231 118.713 L113.88 112.503 L116.819 103.305 L135.113 94.054 L154.515 85.794 L180.805 80.762 L203.608 74.708 L227.508 74.605 M225.485 80.137 L185.149 85.561 L158.304 89.99 L146.467 94.064 L132.293 103.86 L120.027 111.223 L117.031 119.004 L118.525 128.466 L122.297 137.669 L133.93 143.973 L160.088 155.64 L192.579 162.858 L227.852 164.915 L259.753 160.175 L296.131 153.875 L326.044 139.994 L332.771 136.527 L336.036 130.574 L337.688 123.3 L336.625 111.317 L322.486 100.869 L307.567 93.795 L271.056 84.552 L226.054 80.265" stroke="none" stroke-width="0" fill="rgb(0, 216, 255)"/><path d="M228.989 75.776 M228.989 75.776 C265.994 76.921, 305.124 76.808, 335.032 103.692 M335.032 103.692 C337.566 103.069, 337.713 105.774, 337.419 105.976 M337.419 105.976 C342.918 113.567, 348.585 123.425, 342.138 132.492 M342.138 132.492 C330.647 149.569, 307.434 157.188, 283.123 163.763 M283.123 163.763 C246.455 173.059, 208.89 170.241, 175.387 164.702 M175.387 164.702 C154.67 158.977, 135.356 153.705, 119.766 140.719 M119.766 140.719 C112.493 136.563, 110.39 129.174, 110.078 120.569 M110.078 120.569 C113.176 106.882, 122.101 100.399, 133.612 94.35 M133.612 94.35 C163.101 78.963, 194.569 74.612, 228.989 75.776 M228.989 75.776 C228.989 75.776, 228.989 75.776, 228.989 75.776 M226.279 81.513 M226.279 81.513 C189.195 81.534, 154.424 84.281, 125.43 106.597 M125.43 106.597 C124.091 109.255, 124.803 107.339, 122.671 109.076 M122.671 109.076 C122.788 108.372, 122.207 111.613, 121.013 110.812 M121.013 110.812 C117.751 114.214, 114.333 125.896, 119.096 131.294 M119.096 131.294 C124.294 137.326, 128.994 144.203, 137.661 146.309 M137.661 146.309 C163.128 160.912, 195.388 164.421, 226.323 163.255 M226.323 163.255 C258.55 164.881, 289.84 160.471, 316.736 146.372 M316.736 146.372 C327.189 142.32, 340.259 133.278, 339.502 121.748 M339.502 121.748 C338.283 110.866, 330.821 105.575, 322.39 101.569 M322.39 101.569 C321.467 98.782, 320.03 99.549, 316.443 98.302 M316.443 98.302 C289.273 83.517, 258.316 82.168, 226.279 81.512 M226.279 81.512 C226.279 81.512, 226.279 81.513, 226.279 81.513" stroke="rgb(0, 216, 255)" stroke-width="1" fill="none"/></g><g clip-path="url(#a_0)"><path d="M276.193 19.476 L284.338 20.757 L293.049 28.315 L297.908 43.184 L297.109 52.313 L292.377 86.428 L286.046 108.556 L274.468 131.642 L261.885 155.132 L241.911 183.064 L215.521 209.314 L208.197 218.16 L188.123 224.151 L178.495 225.459 L169.974 222.553 L161.352 215.929 L156.95 211.07 L155.916 198.073 L157.459 184.176 L163.88 152.159 L169.403 136.665 L182.624 106.332 L207.394 67.24 L235.596 36.475 L259.207 21.844 L266.406 19.197 L275.733 16.411 M275.038 23.515 L265.551 26.492 L254.075 29.763 L234.048 48.724 L208.77 72.579 L190.825 102.873 L175.933 133.872 L167.73 153.595 L163.926 181.63 L163.148 193.868 L162.737 208.374 L166.782 211.531 L175.361 221.643 L177.399 220.656 L191.625 220.945 L201.691 215.078 L213.953 207.597 L237.501 180.495 L252.276 160.679 L264.465 136.871 L278.238 114.744 L286.447 87.944 L294.373 58.652 L293.565 50.419 L288.69 36.511 L285.15 27.128 L274.628 23.972" stroke="none" stroke-width="0" fill="rgb(0, 216, 255)"/><path d="M276.843 18.003 M276.843 18.003 C290.432 18.288, 295.798 35.078, 298.514 46.902 M276.843 18.003 C290.628 19.606, 295.958 34.85, 298.514 46.902 M298.514 46.902 C299.382 50.052, 300.415 50.466, 298.739 54.154 M298.514 46.902 C299.916 48.21, 297.538 53.18, 298.739 54.154 M298.739 54.154 C298.691 58.157, 299.441 60.171, 298.338 62.009 M298.739 54.154 C297.04 56.816, 299.176 61.351, 298.338 62.009 M298.338 62.009 C297.239 95.376, 279.353 123.189, 263.306 153.581 M298.338 62.009 C293.927 95.97, 280.365 122.943, 263.306 153.581 M263.306 153.581 C247.429 182.141, 226.932 209.742, 197.356 222.03 M263.306 153.581 C245.837 182.252, 227.725 208.465, 197.356 222.03 M197.356 222.03 C187.413 225.696, 177.804 230.459, 168.682 224.167 M197.356 222.03 C188.544 226.374, 174.665 231.219, 168.682 224.167 M168.682 224.167 C159.262 216.106, 154.634 200.524, 156.338 190.833 M168.682 224.167 C155.959 215.657, 156.194 201.172, 156.338 190.833 M156.338 190.833 C155.557 186.48, 157.315 186.673, 156.871 182.318 M156.338 190.833 C154.63 187.029, 158.32 184.908, 156.871 182.318 M156.871 182.318 C162.173 140.166, 182.712 98.941, 208.996 66.63 M156.871 182.318 C163.393 141.355, 184.566 99.471, 208.996 66.63 M208.996 66.63 C223.327 45.835, 243.9 28.039, 265.884 19.764 M208.996 66.63 C222.799 48.525, 244.798 26.54, 265.884 19.764 M265.884 19.764 C268.802 16.995, 272.145 18.211, 276.843 18.003 M265.884 19.764 C269.85 20.449, 274.199 16.671, 276.843 18.003 M276.843 18.003 C276.843 18.003, 276.843 18.003, 276.843 18.003 M276.843 18.003 C276.843 18.003, 276.843 18.003, 276.843 18.003 M276.188 23.735 M276.188 23.735 C258.346 22.946, 243.845 34.787, 233.004 48.222 M276.188 23.735 C261.37 25.774, 244.548 37.724, 233.004 48.222 M233.004 48.222 C197.824 81.044, 173.076 124.493, 164.843 169.123 M233.004 48.222 C198.324 78.949, 175.03 122.633, 164.843 169.123 M164.843 169.123 C164.37 174.35, 164.788 175.03, 162.955 179.716 M164.843 169.123 C161.848 170.359, 164.322 175.72, 162.955 179.716 M162.955 179.716 C163.857 184.415, 161.589 183.4, 162.178 188.016 M162.955 179.716 C163.223 180.224, 164.018 185.767, 162.178 188.016 M162.178 188.016 C162.001 190.623, 163.877 193.645, 162.095 194.657 M162.178 188.016 C162.168 189.558, 161.797 193.074, 162.095 194.657 M162.095 194.657 C162.062 194.556, 163.456 197.758, 162.447 199.841 M162.095 194.657 C164.309 196.054, 160.085 199.171, 162.447 199.841 M162.447 199.841 C164.454 199.455, 161.708 203.327, 163.019 203.768 M162.447 199.841 C164.671 200.24, 161.126 202.341, 163.019 203.768 M163.019 203.768 C164.836 206.049, 162.012 203.795, 163.655 206.644 M163.019 203.768 C164.745 206.118, 161.867 206.367, 163.655 206.644 M163.655 206.644 C164.559 207.694, 163.819 207.908, 164.335 208.948 M163.655 206.644 C164.349 207.927, 163.37 209.611, 164.335 208.948 M164.335 208.948 C165.342 216.884, 171.204 218.981, 178.41 220.93 M164.335 208.948 C168.23 216.43, 172.436 221.645, 178.41 220.93 M178.41 220.93 C192.787 219.595, 210.673 208.284, 222.895 196.804 M178.41 220.93 C192.833 219.129, 210.741 209.266, 222.895 196.804 M222.895 196.804 C246.696 174.227, 261.185 146.779, 276.584 116.481 M222.895 196.804 C245.324 172.526, 264.268 146.048, 276.584 116.481 M276.584 116.481 C288.29 93.708, 297.546 67.93, 291.799 40.153 M276.584 116.481 C285.195 90.37, 297.51 68.027, 291.799 40.153 M291.799 40.153 C290.316 38.729, 292.074 36.372, 291.065 37.189 M291.799 40.153 C291.007 39.796, 289.521 36.551, 291.065 37.189 M291.065 37.189 C289.791 37.204, 288.834 37.453, 290.293 34.827 M291.065 37.189 C289.587 38.374, 292.831 37.309, 290.293 34.827 M290.293 34.827 C288.85 27.336, 282.614 25.703, 276.188 23.735 M290.293 34.827 C287.664 26.91, 282.851 25.39, 276.188 23.735 M276.188 23.735 C276.188 23.735, 276.188 23.735, 276.188 23.735 M276.188 23.735 C276.188 23.735, 276.188 23.735, 276.188 23.735" stroke="rgb(0, 216, 255)" stroke-width="1" fill="none"/></g><g clip-path="url(#a_0)"><path d="M180.162 18.178 L190.094 20.228 L204.474 26.431 L226.633 42.32 L253.627 74.49 L267.678 97.085 L279.438 120.049 L291.055 152.081 L299.537 182.072 L299.962 201.175 L296.827 208.735 L290.59 221.702 L285.175 223.516 L269.751 226.276 L257.835 220.421 L246.107 215.822 L227.693 199.898 L203.539 174.136 L193.356 159.18 L177.019 126.424 L162.884 90.622 L156.652 62.114 L154.689 45.559 L159.02 35.604 L164.102 25.811 L169.889 18.182 L180.261 20.068 M179.296 24.785 L173.158 25.148 L168.769 30.47 L164.255 46.478 L162.063 56.602 L164.403 67.597 L168.849 90.798 L182.54 127.552 L207.716 168.552 L229.747 197.263 L248.309 212.33 L258.668 216.038 L270.259 222.218 L279.301 222.521 L283.301 221.357 L289.317 212.626 L292.149 200.298 L293.903 189.33 L290.748 170.63 L281.033 140.58 L263.208 104.339 L243.697 69.807 L218.502 43.955 L198.023 27.758 L188.828 27.595 L178.698 22.815" stroke="none" stroke-width="0" fill="rgb(0, 216, 255)"/><path d="M179.002 18.218 M179.002 18.218 C197.17 19.182, 212.785 31.442, 225.986 43.635 M225.986 43.635 C250.241 68.801, 269.244 99.057, 284.248 130.927 M284.248 130.927 C293.31 157.684, 306.244 185.77, 296.367 210.606 M296.367 210.606 C294.926 218.09, 287.904 228.348, 276.819 226.769 M276.819 226.769 C260.76 226.536, 242.034 215.892, 228.989 200.678 M228.989 200.678 C191.732 165.892, 167.756 120.099, 158.432 72.7 M158.432 72.7 C158.933 69.824, 157.432 64.88, 156.92 62.297 M156.92 62.297 C156.236 60.58, 154.984 56.568, 156.402 53.729 M156.402 53.729 C157.346 52.605, 154.483 50.356, 156.573 46.814 M156.573 46.814 C156.185 46.099, 155.298 44.787, 157.048 42.231 M157.048 42.231 C158.254 41.335, 158.361 38.841, 157.82 37.971 M157.82 37.971 C157.585 37.221, 158.273 35.474, 158.534 35.194 M158.534 35.194 C159.993 26.101, 168.571 18.572, 179.002 18.218 M179.002 18.218 C179.002 18.218, 179.002 18.218, 179.002 18.218 M178.341 23.955 M178.341 23.955 C169.176 25.05, 165.17 37.764, 162.525 44.662 M162.525 44.662 C161.715 45.625, 160.585 46.314, 162.163 49.885 M162.163 49.885 C160.386 53.763, 160.891 55.326, 162.236 56.58 M162.236 56.58 C165.639 87.139, 179.998 119.4, 195.679 148.627 M195.679 148.627 C211.92 175.667, 232.832 201.047, 259.1 216.088 M259.1 216.088 C266.476 221.459, 275.705 224.67, 283.314 219.433 M283.314 219.433 C291.548 215.314, 293.807 205.183, 293.335 195.112 M293.335 195.112 C293.396 194.813, 291.777 192.311, 293.398 188.26 M293.398 188.26 C292.824 184.194, 294.482 182.473, 292.748 179.687 M292.748 179.687 C287.922 153.789, 278.95 129.42, 264.304 104.156 M264.304 104.156 C247.095 75.327, 227.907 45.442, 197.659 29.696 M197.659 29.696 C192.572 27.546, 186.728 24.843, 178.341 23.955 M178.341 23.955 C178.341 23.955, 178.341 23.955, 178.341 23.955" stroke="rgb(0, 216, 255)" stroke-width="1" fill="none"/></g><g clip-path="url(#a_0)"><path d="M35.594 288.782 L36.707 265.292 L54.167 263.462 L56.335 270.247 L56.943 276.018 L48.622 281.601 L42.063 281.87 L41.616 274.214 L48.654 276.511 L53.453 270.966 L51.283 270.355 L43.295 267.902 L41.624 290.017 L36.146 289.968 M50.081 277.04 L58.16 289.101 L52.256 288.163 L45.983 279.408 L51.607 279.767 M68.54 290.452 L62.149 288.364 L59.77 280.788 L60.832 272.284 L67.784 269.044 L75.65 272.962 L79.453 281.634 L77.061 286.239 L71.166 289.096 M68.7 286.964 L70.167 284.475 L72.77 278.735 L73.421 273.585 L70.576 275.043 L68.733 275.115 L64.825 280.729 L68.248 284.816 L68.895 286.068 M95.781 281.7 L96.339 270.153 L99.621 271.768 L99.632 288.145 L94.25 289.929 L97.426 284.794 L95.091 289.194 L88.17 290.651 L85.347 288.873 L84.758 283.254 L84.602 271.552 L87.969 271.236 L89.06 283.728 L91.584 284.914 L95.079 282.926 M115.034 296.259 L108.503 298.22 L103.608 291.294 L109.748 292.327 L113.798 292.109 L115.126 291.768 L119.636 292.229 L119.302 285.465 L112.842 290.613 L106.436 286.12 L105.119 283.761 L105.476 272.325 L111.774 268.635 L114.915 271.541 L120.215 274.806 L117.888 269.734 L123.435 268.501 L122.681 294.051 L121.188 294.9 L113.194 297.379 M114.814 285.005 L114.785 286.41 L116.633 279.887 L114.667 275.424 L115.216 272.841 L112.219 273.352 L110.245 278.605 L110.301 282.992 L115.058 284.469 M134.114 276.865 L132.973 291.622 L127.248 290.792 L127.031 262.058 L131.348 261.922 L133.578 274.95 L136.522 270.801 L144.106 273.517 L146.654 276.768 L146.001 290.005 L139.934 288.116 L139.277 274.301 L136.179 272.807 L133.76 278.417 M158.913 288.124 L157.989 262.474 L175.221 265.705 L179.776 268.317 L178.536 275.579 L170.408 278.681 L160.2 280.705 L160.848 276.614 L171.998 276.907 L171.568 273.615 L171.296 270.503 L164.649 269.805 L164.634 288.65 L158.664 291.19 M173.373 278.687 L181.295 288.038 L173.679 289.736 L165.097 278.295 L174.917 277.283 M192.35 291.786 L182.356 288.008 L181.162 278.748 L185.627 272.084 L189.802 270.031 L196.955 274.098 L201.539 281.148 L201.566 282.323 L185.001 282.063 L183.172 278.742 L194.241 277.171 L191.084 273.623 L187.588 274.568 L185.529 277.753 L185.487 281.84 L189.844 284.122 L196.166 282.755 L201.349 282.631 L194.831 287.848 L189.498 289.272 M210.45 289.585 L202.311 285.543 L204.992 280.446 L215.837 276.051 L212.394 272.679 L207.276 276.489 L205.058 276.208 L206.281 269.607 L216.829 271.488 L218.41 272.413 L220.61 291.17 L214.223 290.399 L215.99 286.287 L207.612 289.986 M211.704 288.151 L214.752 284.5 L216.028 280.015 L208.384 283.533 L208.568 283.973 L210.263 286.812 M233.594 289.715 L225.522 285.557 L223.818 278.284 L225.745 271.191 L232.593 271.387 L240.047 270.396 L243.571 275.638 L235.39 278.934 L234.345 272.862 L231.27 276.023 L230.271 285.02 L229.855 283.756 L234.71 285.161 L237.98 282.751 L240.391 282.656 L240.453 289.372 L234.067 290.334 M256.848 268.819 L255.315 274.863 L243.822 272.529 L244.782 268.562 L255.44 268.593 M248.001 266.885 L251.91 265.744 L253.917 283.178 L255.028 284.564 L253.727 284.093 L254.45 287.736 L252.019 289.598 L248.206 285.803 L248.229 264.772 M274.169 291.35 L264.691 264.055 L271.729 265.489 L277.045 283.399 L282.781 262.254 L288.349 263.083 L291.568 282.427 L295.707 263.827 L303.065 264.479 L294.712 291.693 L289.45 290.224 L283.485 270.642 L277.911 290.476 L274.993 289.29 M305.582 290.571 L305.972 268.741 L308.464 271.872 L310.916 271.674 L310.586 269.001 L316.288 271.293 L314.146 273.665 L310.693 276.348 L308.809 289.501 L304.276 288.981 M324.875 290.098 L317.363 287.168 L317.561 279.566 L327.747 277.955 L325.638 273.392 L322.282 276.596 L316.69 277.254 L323.747 271.875 L329.938 268.893 L332.717 274.691 L336.371 291.289 L329.593 289.336 L329.614 287.708 L323.312 288.431 M324.411 284.589 L328.613 286.514 L331.296 282.153 L324.018 284.637 L323.33 286.08 L326.186 285.3 M340.678 297.069 L337.954 268.338 L342.49 270.698 L343.034 272.534 L346.715 268.765 L354.617 271.16 L359.965 277.863 L355.655 284.293 L354.905 287.864 L349.611 291.293 L344.295 286.292 L344.219 295.316 L337.957 298.749 M344.799 280.542 L346.106 283.805 L351.606 284.789 L352.978 281.137 L353.217 276.473 L352.708 275.512 L345.621 276.637 L343.208 278.143 M361.004 297.927 L363.668 271.639 L367.814 269.653 L368.222 272.446 L371.472 270.881 L376.991 272.195 L379.051 275.216 L381.111 286.64 L375.56 288.306 L373.272 291.498 L367.296 288.546 L367.572 297.405 L361.049 296.715 M365.591 281.385 L368.938 285.384 L375.208 283.304 L373.141 284.048 L374.146 278.074 L372.66 273.253 L367.1 273.619 L365.291 281.346 M393.915 290.059 L387.29 287.14 L382.249 278.413 L387.426 273.77 L393.816 269.844 L401.209 271.585 L401.675 281.757 L400.802 279.99 L387.313 282.918 L384.09 277.155 L397.518 276.657 L396.747 273.765 L390.332 273.98 L388.468 277.519 L388.75 285.17 L392.047 285.085 L396.66 282.407 L404.493 283.448 L398.569 291.161 L391.704 288.309 M404.799 289.847 L407.491 268.466 L413.441 268.966 L410.771 274.79 L413.546 271.104 L417.473 270.363 L420.063 273.75 L411.637 275.827 L409.616 291.063 L407.303 288.577" stroke="none" stroke-width="0" fill="rgb(0, 216, 255)"/><path d="M37.551 289.699 M37.551 289.699 C37.822 285.29, 35.349 278.066, 37.551 263.517 M37.551 263.517 C42.114 263.303, 45.844 263.332, 47.881 263.517 M47.881 263.517 C49.749 263.687, 53.082 262.838, 52.943 264.578 M52.943 264.578 C55.569 264.876, 56.846 265.653, 56.152 267.557 M56.152 267.557 C57.475 267.296, 56.646 271.924, 57.264 272.069 M57.264 272.069 C58.643 272.56, 55.813 274.449, 56.139 276.557 M56.139 276.557 C53.457 277.255, 53.949 279.594, 52.879 279.42 M52.879 279.42 C50.201 280.474, 50.513 281.523, 47.739 280.417 M47.739 280.417 C45.507 281.022, 44.07 281.125, 40.824 280.417 M40.824 280.417 C40.467 279.356, 40.404 277.58, 40.824 275.969 M40.824 275.969 C42.514 275.238, 44.337 275.337, 46.845 275.969 M46.845 275.969 C49.238 274.204, 50.774 275.416, 49.478 275.534 M49.478 275.534 C48.285 273.439, 50.137 276.541, 51.038 274.23 M51.038 274.23 C51.136 272.515, 50.909 271.807, 51.562 272.069 M51.562 272.069 C53.216 271.285, 50.449 270.85, 51.038 269.871 M51.038 269.871 C50.984 269.16, 48.904 269.132, 49.466 268.515 M49.466 268.515 C47.472 266.588, 47.206 269.936, 46.819 268.042 M46.819 268.042 C45.522 268.069, 43.76 267.753, 43.086 268.042 M43.086 268.042 C44.136 277.182, 43.083 284.323, 43.086 289.699 M43.086 289.699 C40.933 289.199, 40.212 289.606, 37.551 289.699 M37.551 289.699 C37.551 289.699, 37.551 289.699, 37.551 289.699 M51.691 277.784 M51.691 277.784 C55.005 281.17, 56.178 287.258, 58.197 289.699 M58.197 289.699 C56.313 290.164, 54.778 290.23, 52.087 289.699 M52.087 289.699 C51.142 287.697, 50.233 284.662, 45.72 277.784 M45.72 277.784 C47.004 277.663, 48.086 277.661, 51.69 277.784 M51.69 277.784 C51.69 277.784, 51.69 277.784, 51.691 277.784 M69.629 290.082 M69.629 290.082 C69.577 290.586, 64.63 289.859, 64.478 288.817 M64.478 288.817 C61.713 288.41, 62.589 287.525, 61.141 285.263 M61.141 285.263 C61.668 283.349, 59.156 280.35, 59.965 279.957 M59.965 279.957 C61.612 279.5, 61.492 275.561, 61.141 274.639 M61.141 274.639 C61.404 272.173, 63.359 273.555, 64.478 271.085 M64.478 271.085 C65.444 270.25, 66.089 269.593, 69.629 269.807 M69.629 269.807 C72.431 267.878, 73.618 270.367, 74.769 271.085 M74.769 271.085 C76.74 273.835, 79.028 271.121, 78.119 274.639 M78.119 274.639 C78.675 275.089, 79.359 277.738, 79.294 279.957 M79.294 279.957 C77.846 283.174, 80.754 282.797, 78.118 285.263 M78.118 285.263 C75.434 288.558, 77.013 288.296, 74.768 288.817 M74.768 288.817 C73.922 290.41, 72.362 291.219, 69.629 290.082 M69.629 290.082 C69.629 290.082, 69.629 290.082, 69.629 290.082 M69.655 285.864 M69.655 285.864 C69.614 287.738, 70.501 284.25, 71.918 285.096 M71.918 285.096 C70.947 282.978, 74.91 285.617, 73.286 282.974 M73.286 282.974 C72.603 282.939, 73.506 279.96, 73.759 279.919 M73.759 279.919 C75.074 279.807, 75.465 278.974, 73.286 276.864 M73.286 276.864 C71.38 277.403, 74.466 276.106, 71.918 274.741 M71.918 274.741 C69.669 274.314, 69.955 274.639, 69.655 273.962 M69.655 273.962 C67.569 273.11, 67.868 274.637, 67.354 274.741 M67.354 274.741 C68.158 275.153, 67.094 277.832, 65.96 276.864 M65.96 276.864 C66.305 277.649, 65.961 279.21, 65.5 279.919 M65.5 279.919 C63.95 283.042, 63.849 282.249, 65.96 282.974 M65.96 282.974 C67.064 282.802, 68.148 284.981, 67.354 285.096 M67.354 285.096 C67.438 287.209, 69.244 285.296, 69.655 285.864 M69.655 285.864 C69.655 285.864, 69.655 285.864, 69.655 285.864 M95.428 281.338 M95.428 281.338 C94.471 277.949, 95.957 276.04, 95.428 270.062 M95.428 270.062 C97.125 270.618, 99.345 269.987, 100.874 270.062 M100.874 270.062 C99.711 274.829, 101.243 283.212, 100.874 289.699 M100.874 289.699 C99.894 290.254, 98.216 289.35, 95.645 289.699 M95.645 289.699 C95.546 288.781, 95.441 287.856, 95.645 286.132 M95.645 286.132 C95.593 286.129, 95.493 286.146, 95.441 286.132 M95.441 286.132 C94.457 286.083, 92.408 288.921, 93.229 288.906 M93.229 288.906 C93.552 289.081, 89.354 290.259, 89.483 289.954 M89.483 289.954 C89.551 289.407, 88.725 289.664, 86.019 289.06 M86.019 289.06 C85.748 289.508, 85.524 286.966, 83.679 286.515 M83.679 286.515 C84.437 284.646, 83.495 284.685, 82.835 282.565 M82.835 282.565 C83.562 279.463, 83.56 274.873, 82.835 270.062 M82.835 270.062 C84.441 270.07, 86.519 269.722, 88.281 270.062 M88.281 270.062 C87.586 272.217, 87.478 275.18, 88.281 281.594 M88.281 281.594 C88.278 282.434, 86.785 282.042, 89.215 284.342 M89.215 284.342 C88.827 286.455, 89.311 286.303, 91.682 285.352 M91.682 285.352 C90.368 287.243, 93.416 284.592, 93.522 284.905 M93.522 284.905 C95.629 282.789, 93.179 282.523, 94.904 283.55 M94.904 283.55 C95.863 283.756, 95.276 282.138, 95.428 281.338 M95.428 281.338 C95.428 281.338, 95.428 281.338, 95.428 281.338 M114.077 297.471 M114.077 297.471 C110.867 298.686, 108.904 297.463, 109.538 296.743 M109.538 296.743 C106.73 295.109, 107.381 296.94, 106.547 294.787 M106.547 294.787 C104.874 294.164, 104.783 293.407, 105.102 292 M105.102 292 C106.719 291.612, 107.489 291.412, 110.139 291.322 M110.139 291.322 C110.194 292.149, 110.411 293.961, 110.868 292.422 M110.868 292.422 C111.189 292.955, 111.652 292.896, 112.184 293.24 M112.184 293.24 C114.19 292.384, 111.71 294.412, 114.204 293.56 M114.204 293.56 C113.611 293.222, 115.036 294.47, 117.132 292.69 M117.132 292.69 C118.873 292.39, 119.931 292.866, 118.295 289.814 M118.295 289.814 C117.947 288.292, 118.366 287.123, 118.295 286.221 M118.295 286.221 C118.196 286.233, 118.116 286.239, 118.065 286.221 M118.065 286.221 C117.404 286.839, 115.589 286.505, 116.991 287.768 M116.991 287.768 C117.796 287.187, 115.83 289.858, 115.15 288.957 M115.15 288.957 C115.552 287.709, 112.537 288.43, 112.466 289.417 M112.466 289.417 C112.275 289.736, 111.387 288.656, 108.439 288.395 M108.439 288.395 C105.436 286.683, 105.654 285.332, 105.562 285.237 M105.562 285.237 C106.731 282.204, 104.234 281.89, 104.501 279.842 M104.501 279.842 C105.18 278.87, 104.836 274.265, 105.588 274.268 M105.588 274.268 C107.531 272.478, 106.459 272.871, 108.477 270.919 M108.477 270.919 C111.403 270.301, 110.388 269.448, 112.453 269.807 M112.453 269.807 C113.658 268.938, 113.327 269.743, 115.214 270.369 M115.214 270.369 C114.835 270.176, 116.31 272.211, 117.004 271.75 M117.004 271.75 C116.922 270.91, 116.921 272.714, 118.065 273.361 M118.065 273.361 C118.127 273.368, 118.183 273.381, 118.27 273.361 M118.27 273.361 C117.84 271.935, 117.912 270.804, 118.27 270.062 M118.27 270.062 C120.353 269.714, 121.954 269.499, 123.677 270.062 M123.677 270.062 C122.699 277.436, 123.389 283.893, 123.677 289.89 M123.677 289.89 C121.944 292.546, 124.668 294.871, 122.45 294.084 M122.45 294.084 C122.622 295.907, 119.164 298.046, 119.05 296.615 M119.05 296.615 C118.004 297.323, 114.21 297.536, 114.077 297.471 M114.077 297.471 C114.077 297.471, 114.077 297.471, 114.077 297.471 M114.192 285.327 M114.192 285.327 C114.344 286.733, 114.364 286.41, 116.416 284.675 M116.416 284.675 C117.273 284.583, 115.66 282.692, 117.822 282.783 M117.822 282.783 C116.702 282.743, 116.505 280.487, 118.321 279.817 M118.321 279.817 C119.352 277.517, 119.645 278.507, 117.835 276.825 M117.835 276.825 C119.44 277.811, 116.64 275.822, 116.429 274.844 M116.429 274.844 C114.118 275.074, 116.062 274.39, 114.192 274.14 M114.192 274.14 C114.44 273.946, 111.353 272.399, 111.929 274.869 M111.929 274.869 C113.278 276.842, 110.183 275.066, 110.535 276.864 M110.535 276.864 C108.827 276.532, 111.624 280.552, 110.062 279.817 M110.062 279.817 C109.972 282.497, 110.3 282.129, 110.535 282.757 M110.535 282.757 C110.614 282.512, 111 285.658, 111.929 284.662 M111.929 284.662 C111.35 284.254, 114.104 286.55, 114.192 285.327 M114.192 285.327 C114.192 285.327, 114.192 285.327, 114.192 285.327 M133.457 278.346 M133.457 278.346 C133.192 282.509, 133.416 287.628, 133.457 289.699 M133.457 289.699 C131.788 289.512, 129.824 290.243, 128.011 289.699 M128.011 289.699 C129.01 277.397, 129.243 268.763, 128.011 263.517 M128.011 263.517 C129.521 263.944, 130.524 263.324, 133.304 263.517 M133.304 263.517 C133.821 267.34, 134.242 271.38, 133.304 273.527 M133.304 273.527 C133.362 273.531, 133.441 273.54, 133.534 273.527 M133.534 273.527 C133.549 270.557, 133.722 271.263, 135.682 270.804 M135.682 270.804 C136.432 271.952, 136.716 268.369, 139.402 269.807 M139.402 269.807 C138.976 271.432, 141.719 269.082, 142.969 270.702 M142.969 270.702 C143.076 273.036, 143.12 271.907, 145.346 273.246 M145.346 273.246 C147.374 275.102, 147.414 277.283, 146.19 277.196 M146.19 277.196 C147.125 282.922, 145.838 286.93, 146.19 289.699 M146.19 289.699 C144.818 289.364, 143.033 289.541, 140.744 289.699 M140.744 289.699 C141.472 286.572, 139.743 283.688, 140.744 278.167 M140.744 278.167 C142.354 277.727, 139.31 274.753, 139.824 275.342 M139.824 275.342 C138.05 275.43, 139.839 275.255, 137.241 274.332 M137.241 274.332 C135.703 272.741, 134.72 274.367, 135.273 274.805 M135.273 274.805 C135.248 276.323, 133.235 275.52, 133.943 276.186 M133.943 276.186 C134.987 278.108, 132.21 278.555, 133.457 278.346 M133.457 278.346 C133.457 278.346, 133.457 278.346, 133.457 278.346 M158.91 289.699 M158.91 289.699 C158.743 286.11, 159.549 279.918, 158.91 263.517 M158.91 263.517 C161.62 263.815, 163.633 263.422, 169.24 263.517 M169.24 263.517 C170.898 265.085, 171.956 262.968, 174.302 264.578 M174.302 264.578 C175.033 267.021, 177.415 265.108, 177.511 267.557 M177.511 267.557 C178.614 270.148, 178.829 272.233, 178.623 272.069 M178.623 272.069 C176.717 272.443, 179.235 275.283, 177.498 276.557 M177.498 276.557 C175.844 279.322, 174.362 279.642, 174.238 279.42 M174.238 279.42 C170.853 278.975, 169.453 280.892, 169.099 280.417 M169.099 280.417 C166.932 279.889, 164.099 280.946, 162.183 280.417 M162.183 280.417 C161.758 278.415, 162.291 276.859, 162.183 275.969 M162.183 275.969 C164.393 275.603, 166.649 276.342, 168.204 275.969 M168.204 275.969 C169.308 276.065, 168.556 276.441, 170.838 275.534 M170.838 275.534 C170.761 275.332, 173.343 273.478, 172.398 274.23 M172.398 274.23 C170.998 273.833, 173.59 272.795, 172.922 272.069 M172.922 272.069 C172.333 272.437, 173.093 270.21, 172.398 269.871 M172.398 269.871 C172.594 267.452, 173.218 268.43, 170.825 268.515 M170.825 268.515 C170.149 269.578, 167.387 266.116, 168.179 268.042 M168.179 268.042 C167.389 268.167, 166.488 268.056, 164.446 268.042 M164.446 268.042 C165.127 275.005, 163.039 279.118, 164.446 289.699 M164.446 289.699 C163.659 289.199, 162.1 289.076, 158.91 289.699 M158.91 289.699 C158.91 289.699, 158.91 289.699, 158.91 289.699 M173.05 277.784 M173.05 277.784 C176.461 281.541, 179.27 288.583, 179.557 289.699 M179.557 289.699 C177.339 290.02, 174.718 289.577, 173.446 289.699 M173.446 289.699 C171.244 286.286, 169.429 281.672, 167.079 277.784 M167.079 277.784 C168.808 277.447, 171.187 277.449, 173.05 277.784 M173.05 277.784 C173.05 277.784, 173.05 277.784, 173.05 277.784 M191.066 290.082 M191.066 290.082 C188.344 290.772, 186.231 289.839, 185.85 288.855 M185.85 288.855 C183.247 286.746, 184.762 286.5, 182.5 285.352 M182.5 285.352 C180.755 284.886, 182.327 280.845, 181.324 279.97 M181.324 279.97 C182.651 278.603, 180.736 275.88, 182.5 274.652 M182.5 274.652 C184.225 273.662, 184.439 271.353, 185.811 271.085 M185.811 271.085 C186.445 269.211, 190.398 271.603, 190.848 269.807 M190.848 269.807 C190.349 269.51, 192.151 270.425, 194.466 270.433 M194.466 270.433 C194.387 271.824, 198.488 272.724, 197.406 272.287 M197.406 272.287 C199.115 274.436, 198.399 274.586, 199.375 275.406 M199.375 275.406 C199.643 276.495, 199.727 277.013, 200.078 279.778 M200.078 279.778 C200.206 280.347, 200.152 280.518, 200.078 281.274 M200.078 281.274 C193.197 282.646, 186.325 280.238, 183.497 281.274 M183.497 281.274 C183.14 280.279, 183.411 279.069, 183.497 277.899 M183.497 277.899 C186.764 279.062, 191.994 277.623, 194.952 277.899 M194.952 277.899 C196.774 275.233, 194.577 274.571, 194.441 275.815 M194.441 275.815 C192.878 275.976, 195.514 276.293, 193.021 274.396 M193.021 274.396 C192.339 272.207, 190.045 272.376, 190.938 273.872 M190.938 273.872 C190.906 274.303, 187.776 273.414, 188.739 274.447 M188.739 274.447 C187.794 276.509, 187.94 275.69, 187.256 275.969 M187.256 275.969 C186.152 275.651, 188.305 276.344, 186.706 278.078 M186.706 278.078 C186.632 279.144, 186.674 280.121, 186.706 281.287 M186.706 281.287 C187.02 280.754, 188.549 283.925, 187.243 283.805 M187.243 283.805 C189.545 286.4, 189.901 285.125, 188.79 285.442 M188.79 285.442 C189.992 284.02, 190.637 285.166, 191.155 286.017 M191.155 286.017 C193.399 287.111, 192.174 284.242, 192.817 285.761 M192.817 285.761 C191.84 286.031, 194.196 285.108, 194.108 284.994 M194.108 284.994 C194.21 286.143, 194.801 283.061, 194.926 283.741 M194.926 283.741 C196.358 283.735, 197.767 283.364, 199.963 284.074 M199.963 284.074 C200.137 285.477, 200.042 285.398, 198.391 287.244 M198.391 287.244 C198.367 287.35, 197.84 290.819, 195.348 289.341 M195.348 289.341 C196.041 291.227, 192.22 288.199, 191.066 290.082 M191.066 290.082 C191.066 290.082, 191.066 290.082, 191.066 290.082 M209.232 290.069 M209.232 290.069 C209.349 290.226, 207.245 289.581, 205.882 289.417 M205.882 289.417 C205.55 289.882, 205.063 289.912, 203.556 287.462 M203.556 287.462 C204.049 285.3, 201.074 286.789, 202.712 284.214 M202.712 284.214 C204.014 284.588, 204.859 283.449, 203.313 281.466 M203.313 281.466 C202.823 279.782, 202.41 281.142, 204.949 279.676 M204.949 279.676 C204.264 278.511, 208.047 278.993, 207.301 278.653 M207.301 278.653 C207.239 278.841, 210.003 278.522, 210.088 278.167 M210.088 278.167 C209.931 277.883, 210.664 278.103, 212.85 277.835 M212.85 277.835 C213.421 276.177, 213.423 277.215, 214.371 277.349 M214.371 277.349 C214.251 277.465, 214.673 278.03, 214.844 276.403 M214.844 276.403 C214.852 276.373, 214.851 276.351, 214.844 276.327 M214.844 276.327 C214.137 277.209, 215.291 274.403, 214.077 274.447 M214.077 274.447 C211.966 275.492, 211.876 275.594, 211.929 273.783 M211.929 273.783 C211.252 272.894, 212.135 275.241, 209.59 274.435 M209.59 274.435 C208.479 273.63, 209.084 274.705, 208.439 276.045 M208.439 276.045 C206.291 275.359, 204.572 275.327, 203.402 275.636 M203.402 275.636 C201.788 273.768, 202.619 275.014, 204.911 272.542 M204.911 272.542 C205.764 270.608, 205.416 270.941, 207.813 270.523 M207.813 270.523 C209.083 271.922, 209.519 269.554, 211.955 269.807 M211.955 269.807 C214.619 269, 212.681 270.577, 215.087 270.19 M215.087 270.19 C216.1 269.778, 215.169 269.54, 217.759 271.379 M217.759 271.379 C220.291 271.318, 218.418 272.574, 219.612 273.45 M219.612 273.45 C221.705 275.239, 220.086 275.97, 220.29 276.454 M220.29 276.454 C220.134 280.212, 219.765 285.665, 220.29 289.699 M220.29 289.699 C218.438 289.244, 217.67 289.554, 215.125 289.699 M215.125 289.699 C214.851 288.979, 214.901 288.108, 215.125 286.976 M215.125 286.976 C215.082 286.981, 215.032 286.99, 214.972 286.976 M214.972 286.976 C213.107 287.168, 214.366 287.191, 213.706 288.599 M213.706 288.599 C215.064 290.703, 214.358 290.113, 211.801 289.686 M211.801 289.686 C209.925 290.346, 208.226 289.099, 209.232 290.069 M209.232 290.069 C209.232 290.069, 209.232 290.069, 209.232 290.069 M210.791 286.311 M210.791 286.311 C211.1 288.303, 213.484 286.441, 212.914 285.838 M212.914 285.838 C213.494 283.697, 212.123 284.66, 214.358 284.534 M214.358 284.534 C214.754 285.902, 213.162 282.994, 214.882 282.68 M214.882 282.68 C215.055 281.935, 214.996 281.406, 214.882 280.596 M214.882 280.596 C215.647 280.002, 214.045 278.842, 214.179 280.903 M214.179 280.903 C212.568 280.659, 212.711 282.805, 213.195 281.146 M213.195 281.146 C213.247 280.767, 210.952 280.15, 212.095 281.338 M212.095 281.338 C211.733 281.354, 211.609 281.512, 211.098 281.479 M211.098 281.479 C209.395 280.195, 208.898 281.876, 209.423 281.926 M209.423 281.926 C208.249 280.976, 208.363 283.951, 208.311 282.757 M208.311 282.757 C208.373 284.392, 209.043 282.62, 207.915 284.035 M207.915 284.035 C207.118 284.003, 208.511 284.618, 208.72 285.736 M208.72 285.736 C208.818 287.889, 210.543 284.359, 210.791 286.311 M210.791 286.311 C210.791 286.311, 210.791 286.311, 210.791 286.311 M233.387 290.082 M233.387 290.082 C229.429 290.606, 229.822 290.019, 228.197 288.804 M228.197 288.804 C226.522 289.845, 225.252 286.108, 224.873 285.224 M224.873 285.224 C224.24 283.667, 222.505 280.617, 223.722 279.957 M223.722 279.957 C222.733 276.195, 223.767 276.734, 224.886 274.665 M224.886 274.665 C224.662 273.049, 228.207 270.299, 228.222 271.098 M228.222 271.098 C231.097 268.325, 233.053 270.614, 233.362 269.807 M233.362 269.807 C236.12 269.92, 234.874 269.729, 237.862 270.74 M237.862 270.74 C237.687 270.106, 239.185 273.809, 240.917 273.361 M240.917 273.361 C243.581 274.742, 241.923 277.579, 242.157 277.324 M242.157 277.324 C240.972 277.912, 239.117 277.348, 237.018 277.324 M237.018 277.324 C236.673 275.412, 237.556 275.141, 235.867 274.959 M235.867 274.959 C236.04 274.86, 236.081 275.159, 233.451 274.051 M233.451 274.051 C232.353 272.196, 232.209 275.225, 231.24 274.741 M231.24 274.741 C231.343 273.572, 229.451 276.036, 229.782 276.723 M229.782 276.723 C230.773 277.341, 229.996 279.691, 229.258 279.881 M229.258 279.881 C230.661 279.263, 228.501 280.522, 229.769 283.077 M229.769 283.077 C231.586 282.346, 231.82 286.502, 231.24 285.084 M231.24 285.084 C233.814 283.722, 231.805 285.016, 233.451 285.774 M233.451 285.774 C233.708 286.222, 235.322 286.601, 235.126 285.39 M235.126 285.39 C236.466 284.955, 237.871 284.239, 236.366 284.278 M236.366 284.278 C237.78 282.896, 236.356 283.983, 237.018 282.501 M237.018 282.501 C238.122 282.803, 240.298 282.313, 242.157 282.501 M242.157 282.501 C241.664 284.087, 242.347 285.616, 240.93 286.464 M240.93 286.464 C238.383 285.91, 240.684 286.996, 237.926 289.123 M237.926 289.123 C238.407 288.959, 235.97 289.139, 233.387 290.082 M233.387 290.082 C233.387 290.082, 233.387 290.082, 233.387 290.082 M256.089 270.062 M256.089 270.062 C255.884 270.918, 256.563 272.722, 256.089 274.153 M256.089 274.153 C252.697 274.327, 248.522 275.077, 244.263 274.153 M244.263 274.153 C244.759 272.351, 244.353 271.32, 244.263 270.062 M244.263 270.062 C249.38 269.122, 251.531 268.898, 256.089 270.062 M256.089 270.062 C256.089 270.062, 256.089 270.062, 256.089 270.062 M246.948 265.358 M246.948 265.358 C249.127 265.396, 251.122 264.932, 252.394 265.358 M252.394 265.358 C250.786 270.105, 253.462 274.981, 252.394 283.665 M252.394 283.665 C253.356 283.986, 254.457 284.88, 252.624 284.841 M252.624 284.841 C252.776 283.636, 254.363 286.901, 253.263 285.416 M253.263 285.416 C254.002 284.054, 255.777 284.918, 254.235 285.582 M254.235 285.582 C252.649 286.331, 256.419 287.433, 255.002 285.518 M255.002 285.518 C255.086 285.548, 255.235 285.46, 255.59 285.403 M255.59 285.403 C256.087 286.59, 256.03 287.819, 256.447 289.456 M256.447 289.456 C254.363 291.094, 254.849 288.4, 255.296 289.75 M255.296 289.75 C254.846 291.282, 255.731 290.756, 253.493 289.967 M253.493 289.967 C251.655 291.373, 250.425 290.637, 250.042 289.443 M250.042 289.443 C249.344 288.295, 249.438 287.852, 247.753 287.577 M247.753 287.577 C248.849 288.486, 246.209 286.577, 246.948 284.381 M246.948 284.381 C247.743 278.517, 248.962 273.663, 246.948 265.358 M246.948 265.358 C246.948 265.358, 246.948 265.358, 246.948 265.358 M273.964 289.699 M273.964 289.699 C272.988 282.378, 271.927 278.652, 266.472 263.517 M266.472 263.517 C267.998 263.497, 269.339 263.281, 272.519 263.517 M272.519 263.517 C271.984 267.83, 273.531 273.521, 276.853 281.709 M276.853 281.709 C276.926 281.695, 276.937 281.722, 277.07 281.709 M277.07 281.709 C278.085 276.035, 281.067 269.498, 281.852 263.517 M281.852 263.517 C283.576 263.613, 284.906 263.736, 287.029 263.517 M287.029 263.517 C288.058 266.53, 288.507 272.832, 291.798 281.747 M291.798 281.747 C291.877 281.74, 291.964 281.73, 292.028 281.747 M292.028 281.747 C293.507 277.511, 293.92 268.129, 296.362 263.517 M296.362 263.517 C297.775 263.317, 299.037 263.119, 302.409 263.517 M302.409 263.517 C300.318 273.803, 298.987 283.923, 294.917 289.699 M294.917 289.699 C293.098 289.312, 291.535 289.887, 289.522 289.699 M289.522 289.699 C289.453 286.643, 287.037 280.638, 284.536 272.581 M284.536 272.581 C284.48 272.561, 284.379 272.591, 284.332 272.581 M284.332 272.581 C282.897 278.683, 282.33 281.952, 279.359 289.699 M279.359 289.699 C277.261 290.215, 275.644 289.56, 273.964 289.699 M273.964 289.699 C273.964 289.699, 273.964 289.699, 273.964 289.699 M304.039 289.699 M304.039 289.699 C306.145 287.116, 306.196 281.835, 304.039 270.062 M304.039 270.062 C305.12 269.995, 307.289 270.095, 309.318 270.062 M309.318 270.062 C309.507 271.417, 309.026 272.413, 309.318 273.489 M309.318 273.489 C309.41 273.492, 309.456 273.484, 309.523 273.489 M309.523 273.489 C311.762 271.898, 312.287 273.247, 311.325 270.727 M311.325 270.727 C312.834 270.38, 314.486 270.796, 314.24 269.781 M314.24 269.781 C312.901 271.047, 316.459 271.389, 315.122 269.832 M315.122 269.832 C316.836 269.333, 317.63 271.739, 315.953 269.973 M315.953 269.973 C315.642 270.951, 315.511 271.931, 315.953 274.805 M315.953 274.805 C316.794 274.556, 316.355 274.33, 314.892 274.601 M314.892 274.601 C315.827 273.926, 313.205 272.548, 313.652 274.511 M313.652 274.511 C314.538 276.303, 312.795 273.899, 311.504 275.035 M311.504 275.035 C312.402 275.848, 309.337 275.607, 310.021 276.467 M310.021 276.467 C309.418 278.301, 309.075 277.163, 309.485 278.589 M309.485 278.589 C309.381 281.944, 309.1 284.382, 309.485 289.699 M309.485 289.699 C308.645 289.313, 307.034 289.501, 304.039 289.699 M304.039 289.699 C304.039 289.699, 304.039 289.699, 304.039 289.699 M323.806 290.069 M323.806 290.069 C324.248 290.648, 321.752 289.607, 320.456 289.417 M320.456 289.417 C320.38 287.075, 319.007 287.136, 318.13 287.462 M318.13 287.462 C318.106 286.971, 318.118 286.503, 317.286 284.214 M317.286 284.214 C317.406 282.321, 315.667 280.399, 317.887 281.466 M317.887 281.466 C317.735 280.685, 318.087 278.457, 319.523 279.676 M319.523 279.676 C321.845 280.72, 322.168 278.104, 321.876 278.653 M321.876 278.653 C324.76 278.524, 322.396 277.981, 324.662 278.167 M324.662 278.167 C324.249 278.808, 326.97 277.617, 327.424 277.835 M327.424 277.835 C326.187 275.778, 330.312 275.814, 328.945 277.349 M328.945 277.349 C329.063 279.105, 328.275 277.222, 329.418 276.403 M329.418 276.403 C329.423 276.379, 329.42 276.344, 329.418 276.327 M329.418 276.327 C330.679 275.516, 328.059 275.133, 328.651 274.447 M328.651 274.447 C327.026 274.331, 329.048 272.784, 326.503 273.783 M326.503 273.783 C326.852 274.147, 324.486 273.978, 324.164 274.435 M324.164 274.435 C321.776 273.177, 322.892 273.651, 323.013 276.045 M323.013 276.045 C321.325 275.752, 319.333 276.025, 317.976 275.636 M317.976 275.636 C319.713 275.101, 317.907 271.819, 319.485 272.542 M319.485 272.542 C321.243 273.359, 320.594 272.707, 322.387 270.523 M322.387 270.523 C325.226 268.061, 325.911 268.545, 326.529 269.807 M326.529 269.807 C327.335 269.849, 327.42 268.094, 329.661 270.19 M329.661 270.19 C329.09 271.533, 333.456 269.229, 332.333 271.379 M332.333 271.379 C332.101 270.178, 334.985 271.185, 334.187 273.45 M334.187 273.45 C332.917 273.229, 334.628 276.928, 334.864 276.454 M334.864 276.454 C335.211 279.915, 335.071 283.951, 334.864 289.699 M334.864 289.699 C333.414 289.845, 332.226 289.69, 329.699 289.699 M329.699 289.699 C329.47 289.015, 329.585 288.51, 329.699 286.976 M329.699 286.976 C329.667 286.993, 329.609 286.982, 329.546 286.976 M329.546 286.976 C330.314 286.372, 327.467 289.519, 328.28 288.599 M328.28 288.599 C328.361 288.837, 328.007 288.854, 326.376 289.686 M326.376 289.686 C324.184 289.648, 322.933 288.631, 323.806 290.069 M323.806 290.069 C323.806 290.069, 323.806 290.069, 323.806 290.069 M325.366 286.311 M325.366 286.311 C326.801 288.115, 328.235 287.037, 327.488 285.838 M327.488 285.838 C326.152 283.856, 328.429 284.815, 328.932 284.534 M328.932 284.534 C327.41 282, 329.021 283.28, 329.456 282.68 M329.456 282.68 C329.632 282.071, 329.532 281.502, 329.456 280.596 M329.456 280.596 C331.245 281.621, 328.78 279.708, 328.753 280.903 M328.753 280.903 C330.371 279.838, 328.614 279.954, 327.769 281.146 M327.769 281.146 C328.154 282.973, 325.274 282.943, 326.67 281.338 M326.67 281.338 C326.354 281.381, 325.96 281.518, 325.672 281.479 M325.672 281.479 C324.743 283.255, 322.584 283.687, 323.998 281.926 M323.998 281.926 C325.092 281.5, 321.587 282.884, 322.885 282.757 M322.885 282.757 C324.465 282.878, 320.88 282.402, 322.489 284.035 M322.489 284.035 C321.674 286.676, 320.952 286.943, 323.295 285.736 M323.295 285.736 C325.481 284.278, 323.236 287.2, 325.366 286.311 M325.366 286.311 C325.366 286.311, 325.366 286.311, 325.366 286.311 M339.089 297.062 M339.089 297.062 C339.196 287.846, 341.962 274.831, 339.089 270.062 M339.089 270.062 C341.011 269.909, 342.334 270.235, 344.459 270.062 M344.459 270.062 C344.229 271.257, 344.685 272.257, 344.459 273.361 M344.459 273.361 C344.538 273.366, 344.556 273.383, 344.702 273.361 M344.702 273.361 C343.446 274.259, 343.966 271.04, 345.737 271.75 M345.737 271.75 C347.816 270.073, 346.866 269.347, 347.527 270.369 M347.527 270.369 C348.634 270.649, 349.478 271.413, 350.288 269.807 M350.288 269.807 C350.564 269.029, 352.68 270.472, 354.251 270.932 M354.251 270.932 C354.23 270.214, 357.035 272.181, 357.153 274.294 M357.153 274.294 C358.407 277.497, 358.053 276.167, 358.24 279.906 M358.24 279.906 C358.956 281.377, 359.201 285.364, 357.179 285.454 M357.179 285.454 C355.317 286.318, 355.546 289.374, 354.315 288.868 M354.315 288.868 C352.437 291.171, 350.601 290.408, 350.275 290.018 M350.275 290.018 C348.884 289.989, 349.242 289.422, 347.578 289.494 M347.578 289.494 C346.3 287.163, 346.697 287.029, 345.775 288.177 M345.775 288.177 C343.582 286.334, 343.411 287.33, 344.702 286.554 M344.702 286.554 C344.648 286.548, 344.615 286.569, 344.535 286.554 M344.535 286.554 C345.025 289.519, 344.154 293.612, 344.535 297.062 M344.535 297.062 C343.046 296.953, 340.791 296.905, 339.089 297.062 M339.089 297.062 C339.089 297.062, 339.089 297.062, 339.089 297.062 M344.42 279.881 M344.42 279.881 C342.939 281.391, 346.517 282.071, 344.906 282.936 M344.906 282.936 C346.754 282.989, 345.753 282.751, 346.312 284.969 M346.312 284.969 C346.034 283.589, 345.834 284.94, 348.55 285.685 M348.55 285.685 C349.532 284.891, 350.288 283.93, 350.8 284.956 M350.8 284.956 C352.908 282.76, 351.445 281.827, 352.193 282.91 M352.193 282.91 C352.235 283.154, 353.186 280.275, 352.679 279.881 M352.679 279.881 C353.369 278.616, 351.04 277.27, 352.206 276.889 M352.206 276.889 C353.142 277.227, 350.008 275.946, 350.812 274.869 M350.812 274.869 C351.025 273.94, 350.801 275.071, 348.55 274.14 M348.55 274.14 C346.708 272.179, 346.006 275.867, 346.3 274.844 M346.3 274.844 C346.6 275.169, 345.874 274.26, 344.906 276.838 M344.906 276.838 C345.286 276.824, 346.386 277.808, 344.42 279.881 M344.42 279.881 C344.42 279.881, 344.42 279.881, 344.42 279.881 M361.871 297.062 M361.871 297.062 C363.729 289.022, 362.635 280.859, 361.871 270.062 M361.871 270.062 C363.999 270.092, 364.817 269.94, 367.24 270.062 M367.24 270.062 C367.228 271.308, 367.392 272.256, 367.24 273.361 M367.24 273.361 C367.32 273.385, 367.395 273.378, 367.483 273.361 M367.483 273.361 C366.975 271.93, 366.882 272.08, 368.518 271.75 M368.518 271.75 C367.7 271.781, 368.715 271.054, 370.308 270.369 M370.308 270.369 C371.735 268.856, 371.206 269.502, 373.069 269.807 M373.069 269.807 C373.988 271.111, 377.826 270.782, 377.032 270.932 M377.032 270.932 C379.16 273.262, 381.15 271.453, 379.934 274.294 M379.934 274.294 C379.684 277.103, 381.404 277.775, 381.021 279.906 M381.021 279.906 C381.35 280.408, 379.82 282.228, 379.96 285.454 M379.96 285.454 C380.749 285.25, 376.742 286.844, 377.096 288.868 M377.096 288.868 C374.226 288.526, 373.017 290.299, 373.057 290.018 M373.057 290.018 C373.71 289.074, 372.614 289.761, 370.359 289.494 M370.359 289.494 C371.571 289.651, 370.283 290.17, 368.557 288.177 M368.557 288.177 C368.856 287.252, 367.327 286.747, 367.483 286.554 M367.483 286.554 C367.43 286.558, 367.373 286.559, 367.317 286.554 M367.317 286.554 C366.994 290.37, 366.794 291.782, 367.317 297.062 M367.317 297.062 C365.911 297.071, 365.46 297.213, 361.871 297.062 M361.871 297.062 C361.871 297.062, 361.871 297.062, 361.871 297.062 M367.202 279.881 M367.202 279.881 C365.311 280.216, 368.046 281.651, 367.687 282.936 M367.687 282.936 C366.117 284.368, 368.381 286.015, 369.094 284.969 M369.094 284.969 C369.084 285.222, 371.358 286.541, 371.331 285.685 M371.331 285.685 C372.612 287.08, 373.114 286.778, 373.581 284.956 M373.581 284.956 C372.591 283.359, 373.666 282.333, 374.974 282.91 M374.974 282.91 C376.035 280.56, 374.872 282.01, 375.46 279.881 M375.46 279.881 C374.87 277.334, 377.045 276.913, 374.987 276.889 M374.987 276.889 C373.815 276.011, 374.643 273.786, 373.594 274.869 M373.594 274.869 C371.874 275.828, 373.675 276.118, 371.331 274.14 M371.331 274.14 C371.302 273.534, 371.337 272.816, 369.081 274.844 M369.081 274.844 C367.277 275.228, 368.296 277.212, 367.687 276.838 M367.687 276.838 C365.713 279.191, 368.969 278.869, 367.202 279.881 M367.202 279.881 C367.202 279.881, 367.202 279.881, 367.202 279.881 M393.601 290.082 M393.601 290.082 C391.018 291.966, 390.194 290.509, 388.385 288.855 M388.385 288.855 C388.854 287.38, 387.565 287.355, 385.035 285.352 M385.035 285.352 C386.066 282.656, 385.069 282.12, 383.859 279.97 M383.859 279.97 C382.202 278.949, 383.495 277.025, 385.035 274.652 M385.035 274.652 C384.325 273.514, 385.607 270.229, 388.346 271.085 M388.346 271.085 C388.747 269.351, 390.565 268.551, 393.383 269.807 M393.383 269.807 C396.627 267.896, 397.038 268.408, 397.001 270.433 M397.001 270.433 C398.137 271.068, 398.893 270.41, 399.942 272.287 M399.942 272.287 C399.931 273.531, 401.301 272.254, 401.91 275.406 M401.91 275.406 C400.384 274.83, 402.157 279.833, 402.613 279.778 M402.613 279.778 C402.534 280.394, 402.614 280.736, 402.613 281.274 M402.613 281.274 C397.401 282.898, 393.864 281.372, 386.032 281.274 M386.032 281.274 C386.396 280.246, 386.179 279.867, 386.032 277.899 M386.032 277.899 C390.294 277.257, 394.427 277.201, 397.487 277.899 M397.487 277.899 C398.848 277.943, 396.636 276.679, 396.976 275.815 M396.976 275.815 C398.009 275.002, 398.053 275.962, 395.557 274.396 M395.557 274.396 C395.581 272.608, 395.37 272.694, 393.473 273.872 M393.473 273.872 C390.904 274.828, 393.447 273.622, 391.274 274.447 M391.274 274.447 C389.42 273.121, 391.06 277.177, 389.791 275.969 M389.791 275.969 C387.576 274.762, 388.564 277.496, 389.241 278.078 M389.241 278.078 C389.048 279.076, 389.453 279.601, 389.241 281.287 M389.241 281.287 C388.473 282.223, 389.662 281.322, 389.778 283.805 M389.778 283.805 C390.978 285.425, 392.17 285.038, 391.325 285.442 M391.325 285.442 C390.017 286.259, 392.982 287.624, 393.69 286.017 M393.69 286.017 C394.17 285.608, 394.397 284.374, 395.352 285.761 M395.352 285.761 C397.257 284.196, 394.301 285.503, 396.643 284.994 M396.643 284.994 C397.723 283.771, 396.944 284.811, 397.461 283.741 M397.461 283.741 C398.253 284.102, 399.82 284.045, 402.498 284.074 M402.498 284.074 C400.489 285.677, 403.651 284.814, 400.926 287.244 M400.926 287.244 C399.335 286.363, 398.851 288.876, 397.883 289.341 M397.883 289.341 C397.768 288.605, 395.471 291.547, 393.601 290.082 M393.601 290.082 C393.601 290.082, 393.601 290.082, 393.601 290.082 M406.167 289.699 M406.167 289.699 C404.899 285.875, 406.966 278.247, 406.167 270.062 M406.167 270.062 C407.592 270.387, 409.704 270.603, 411.447 270.062 M411.447 270.062 C411.911 270.981, 411.618 271.757, 411.447 273.489 M411.447 273.489 C411.512 273.476, 411.612 273.494, 411.652 273.489 M411.652 273.489 C410.896 270.871, 413.266 272.452, 413.454 270.727 M413.454 270.727 C415.709 268.388, 415.644 271.275, 416.369 269.781 M416.369 269.781 C416.986 271.037, 416.527 271.731, 417.251 269.832 M417.251 269.832 C417.439 268.769, 419.723 268.774, 418.082 269.973 M418.082 269.973 C418.263 271.275, 418.367 272.854, 418.082 274.805 M418.082 274.805 C419.607 276.239, 415.728 276.533, 417.021 274.601 M417.021 274.601 C416.478 273.245, 417.367 275.906, 415.781 274.511 M415.781 274.511 C416.448 273.234, 414.746 275.477, 413.633 275.035 M413.633 275.035 C412.59 274.175, 411.384 275.482, 412.15 276.467 M412.15 276.467 C412.23 277.382, 411.363 277.903, 411.613 278.589 M411.613 278.589 C411.468 282.033, 411.027 288.343, 411.613 289.699 M411.613 289.699 C410.203 289.628, 408.334 289.369, 406.167 289.699 M406.167 289.699 C406.167 289.699, 406.167 289.699, 406.167 289.699" stroke="rgb(0, 216, 255)" stroke-width="1" fill="none"/></g></svg>