<svg xmlns="http://www.w3.org/2000/svg" width="313" height="313" fill="none" viewBox="0 0 313 313">
  <g clip-path="url(#a)">
    <path fill="#00D8FF" d="M156.505 148.14c12.095 0 21.9-9.805 21.9-21.9 0-12.095-9.805-21.9-21.9-21.9-12.096 0-21.901 9.805-21.901 21.9 0 12.095 9.805 21.9 21.901 21.9Z"/>
    <path fill="#00D8FF" fill-rule="evenodd" d="M158.114 80.077c37.34.255 78.078 2.979 106.043 27.916a49.435 49.435 0 0 1 2.387 2.284c6.597 6.724 10.045 17.582 4.719 26.517-10.926 18.345-35.359 26.346-59.015 31.27-35.379 7.366-72.372 7.424-107.736.939-20.35-3.736-41.16-10.285-55.62-23.983-5.63-5.331-10.442-12.344-9.689-20.15 1.223-12.627 13.337-20.731 23.534-26.218 28.321-15.24 62.83-18.648 95.377-18.575Zm-2.71 5.737c-35.33.24-73.57 2.494-100.85 25.084a44.188 44.188 0 0 0-2.758 2.479 34.82 34.82 0 0 0-1.658 1.737c-4.788 5.379-6.436 14.021-1.917 20.482 4.549 6.499 11.454 11.189 18.565 15.014 26.595 14.3 58.022 16.838 88.662 16.946 31.021.112 63.011-2.714 90.413-16.883 10.916-5.648 23.201-13.943 22.766-24.624-.401-9.801-9.957-15.855-17.112-20.179a89.098 89.098 0 0 0-5.947-3.267c-27.202-13.63-59.079-16.858-90.164-16.79Z" clip-rule="evenodd"/>
    <path fill="#00D8FF" fill-rule="evenodd" d="M205.968 22.304c13.66.348 20.737 16.77 21.671 28.899a81.6 81.6 0 0 1 .225 7.253c-.03 2.621-.171 5.242-.401 7.854-2.881 32.337-17.646 63.133-35.032 91.572-17.005 27.818-37.741 55.558-65.95 68.449-9.326 4.265-20.418 6.896-28.674 2.138-11.317-6.52-12.554-21.769-12.344-33.335.054-2.841.24-5.683.534-8.515 4.347-41.863 25.568-81.521 52.124-115.687 15.493-19.934 33.926-39.707 56.888-46.867 3.614-1.13 6.484-1.815 10.959-1.76Zm-.655 5.732c-16.036.254-30.434 12.139-43.184 24.487-33.52 32.46-58.223 75.629-68.16 120.902a129.723 129.723 0 0 0-1.889 10.593 102.359 102.359 0 0 0-.777 8.299 81.251 81.251 0 0 0-.083 6.641 63.27 63.27 0 0 0 .352 5.185c.142 1.315.332 2.626.572 3.927.18.963.391 1.922.636 2.875.2.773.425 1.541.68 2.304 2 6.03 7.155 11.791 14.075 11.982 16.144.44 31.344-11.332 44.485-24.126 23.069-22.452 40.26-50.666 53.689-80.323 10.838-23.945 20.751-49.973 15.215-76.328a43.377 43.377 0 0 0-.734-2.964 36.486 36.486 0 0 0-.772-2.362c-2.152-5.864-7.214-11.107-14.105-11.092Z" clip-rule="evenodd"/>
    <path fill="#00D8FF" fill-rule="evenodd" d="M108.127 22.52c17.43.337 33.085 12.167 46.984 25.416 25.363 24.174 44.069 54.927 58.262 87.293 10.994 25.074 21.108 53.22 12.119 79.678-2.832 8.338-9.997 15.968-19.548 16.163-17.513.352-33.745-12.383-47.83-26.091-35.335-34.401-61.569-79.815-70.557-127.978a124.16 124.16 0 0 1-1.512-10.402 102.32 102.32 0 0 1-.518-8.569c-.04-2.308.01-4.617.171-6.915.108-1.536.264-3.062.475-4.583.2-1.428.454-2.85.772-4.26.21-.933.445-1.858.714-2.777 2.636-9.014 9.493-17.044 20.468-16.976Zm-.661 5.736c-10.206.225-14.877 12.26-15.816 20.707a66.442 66.442 0 0 0-.362 5.223 82.626 82.626 0 0 0 .074 6.696c1.604 32.273 16.031 63.475 33.442 92.046 16.393 26.898 36.19 53.689 63.421 67.461 7.864 3.976 17.421 7.101 24.214 3.345 8.519-4.714 9.566-15.948 10.021-24.321.122-2.279.137-4.568.063-6.851a98.737 98.737 0 0 0-.65-8.574c-3.14-26.59-14.917-51.752-28.444-75.531-16.834-29.578-37.457-59.059-66.645-74.46-6.045-3.188-12.588-5.795-19.318-5.74Z" clip-rule="evenodd"/>
    <path fill="#00D8FF" d="M27.703 294.399v-26.182h10.33c1.976 0 3.664.354 5.062 1.061 1.406.699 2.475 1.692 3.208 2.979.742 1.278 1.113 2.782 1.113 4.512 0 1.739-.375 3.235-1.125 4.488-.75 1.244-1.837 2.198-3.26 2.863-1.415.665-3.128.997-5.14.997h-6.916v-4.448h6.022c1.056 0 1.934-.145 2.633-.435.699-.29 1.219-.725 1.56-1.304.35-.58.524-1.3.524-2.161 0-.869-.175-1.602-.524-2.198-.341-.597-.865-1.049-1.573-1.356-.699-.315-1.58-.473-2.646-.473h-3.733v21.657h-5.535Zm14.139-11.915 6.507 11.915h-6.111l-6.366-11.915h5.97Zm17.939 12.298c-1.986 0-3.703-.422-5.152-1.265-1.44-.853-2.552-2.037-3.337-3.554-.784-1.526-1.176-3.294-1.176-5.306 0-2.028.392-3.801 1.176-5.318.785-1.526 1.897-2.71 3.337-3.554 1.449-.852 3.166-1.278 5.152-1.278 1.986 0 3.699.426 5.14 1.278 1.448.844 2.564 2.028 3.349 3.554.784 1.517 1.176 3.29 1.176 5.318 0 2.012-.392 3.78-1.176 5.306a8.64 8.64 0 0 1-3.35 3.554c-1.44.843-3.153 1.265-5.139 1.265Zm.026-4.219c.903 0 1.657-.255 2.262-.767.605-.519 1.061-1.227 1.368-2.122.316-.895.473-1.913.473-3.055 0-1.142-.157-2.161-.473-3.056-.307-.894-.762-1.602-1.368-2.122-.605-.52-1.359-.78-2.262-.78-.912 0-1.68.26-2.302.78-.613.52-1.078 1.228-1.393 2.122-.307.895-.46 1.914-.46 3.056 0 1.142.153 2.16.46 3.055.315.895.78 1.603 1.393 2.122.623.512 1.39.767 2.302.767Zm25.772-4.525v-11.276h5.446v19.637h-5.228v-3.567h-.205a5.801 5.801 0 0 1-2.212 2.774c-1.022.699-2.27 1.048-3.745 1.048-1.313 0-2.468-.298-3.465-.895-.997-.596-1.777-1.444-2.34-2.544-.553-1.099-.834-2.416-.843-3.95v-12.503h5.446v11.532c.008 1.159.32 2.075.933 2.748.614.673 1.436 1.01 2.468 1.01.656 0 1.27-.149 1.84-.447a3.518 3.518 0 0 0 1.381-1.355c.358-.597.533-1.334.524-2.212Zm18.649 16.133c-1.764 0-3.277-.242-4.538-.728-1.253-.478-2.25-1.13-2.992-1.956-.741-.827-1.223-1.756-1.444-2.787l5.037-.678a3.3 3.3 0 0 0 .728 1.1c.333.341.772.613 1.317.818.554.213 1.227.319 2.02.319 1.185 0 2.16-.289 2.927-.869.776-.571 1.164-1.53 1.164-2.876v-3.593h-.23a5.183 5.183 0 0 1-1.074 1.547c-.477.486-1.091.882-1.841 1.189-.75.307-1.645.46-2.685.46-1.474 0-2.817-.34-4.027-1.022-1.201-.691-2.16-1.743-2.876-3.158-.707-1.423-1.061-3.222-1.061-5.395 0-2.224.362-4.082 1.087-5.574.724-1.491 1.687-2.608 2.889-3.349a7.461 7.461 0 0 1 3.976-1.112c1.099 0 2.019.187 2.761.562.741.367 1.338.827 1.79 1.381.46.545.814 1.082 1.061 1.611h.204v-3.299h5.408v19.828c0 1.671-.409 3.069-1.227 4.194-.819 1.125-1.952 1.968-3.401 2.531-1.44.571-3.098.856-4.973.856Zm.115-12.144c.878 0 1.619-.218 2.225-.652.613-.444 1.082-1.074 1.406-1.893.332-.826.498-1.815.498-2.965 0-1.151-.162-2.148-.485-2.992-.324-.852-.793-1.513-1.407-1.981-.613-.469-1.359-.704-2.237-.704-.895 0-1.649.243-2.263.729-.613.477-1.078 1.142-1.393 1.994-.315.853-.473 1.837-.473 2.954 0 1.133.158 2.113.473 2.94.324.818.788 1.453 1.393 1.905.614.443 1.368.665 2.263.665Zm19.266-6.981v11.353h-5.446v-26.182h5.292v10.01h.23c.444-1.159 1.16-2.067 2.148-2.723.989-.665 2.229-.997 3.72-.997 1.364 0 2.553.298 3.567.895 1.023.588 1.815 1.436 2.378 2.544.571 1.099.852 2.416.844 3.95v12.503h-5.446v-11.532c.008-1.21-.299-2.152-.921-2.825-.613-.673-1.474-1.01-2.582-1.01-.742 0-1.398.158-1.969.473a3.355 3.355 0 0 0-1.329 1.381c-.316.596-.478 1.317-.486 2.16Zm20.202 11.685a2.984 2.984 0 0 1-2.173-.895 2.984 2.984 0 0 1-.895-2.173c0-.835.298-1.551.895-2.148a2.987 2.987 0 0 1 2.173-.895c.818 0 1.534.299 2.148.895.613.597.92 1.313.92 2.148 0 .562-.145 1.078-.435 1.547-.281.46-.652.831-1.112 1.112-.46.273-.967.409-1.521.409Zm7.539-19.969h5.446v20.608c0 1.517-.298 2.745-.895 3.682-.596.938-1.453 1.624-2.569 2.058-1.108.435-2.433.652-3.976.652-.188 0-.367-.004-.537-.012-.179 0-.366-.005-.562-.013v-4.257c.144.008.272.012.383.012.102.009.213.013.332.013.878 0 1.492-.187 1.841-.562.358-.367.537-.921.537-1.662v-20.519Zm2.71-2.531a2.943 2.943 0 0 1-2.071-.805c-.579-.546-.869-1.198-.869-1.956 0-.75.29-1.394.869-1.931a2.92 2.92 0 0 1 2.071-.818c.819 0 1.513.273 2.084.818.58.537.87 1.181.87 1.931 0 .758-.29 1.41-.87 1.956-.571.537-1.265.805-2.084.805Zm23.437 8.131-4.986.307a2.565 2.565 0 0 0-.55-1.151 2.926 2.926 0 0 0-1.112-.831c-.452-.213-.993-.32-1.623-.32-.844 0-1.556.179-2.135.537-.58.35-.87.819-.87 1.407 0 .468.188.865.563 1.189.375.323 1.018.583 1.93.779l3.554.716c1.909.392 3.333 1.023 4.27 1.892.938.87 1.406 2.012 1.406 3.426 0 1.287-.379 2.417-1.137 3.388-.75.972-1.782 1.73-3.094 2.276-1.304.537-2.808.805-4.513.805-2.599 0-4.67-.541-6.213-1.623-1.534-1.091-2.433-2.574-2.697-4.449l5.356-.281c.162.792.554 1.397 1.176 1.815.622.409 1.419.613 2.391.613.954 0 1.721-.183 2.301-.549.588-.375.886-.857.895-1.445-.009-.494-.217-.899-.627-1.214-.409-.324-1.039-.571-1.892-.742l-3.4-.677c-1.918-.384-3.345-1.049-4.283-1.995-.929-.946-1.393-2.152-1.393-3.618 0-1.261.341-2.348 1.022-3.26.691-.911 1.658-1.615 2.902-2.109 1.253-.494 2.719-.741 4.398-.741 2.48 0 4.432.524 5.855 1.572 1.432 1.048 2.267 2.476 2.506 4.283Zm12.311 14.037v-26.182h10.33c1.977 0 3.664.354 5.062 1.061 1.406.699 2.476 1.692 3.209 2.979.741 1.278 1.112 2.782 1.112 4.512 0 1.739-.375 3.235-1.125 4.488-.75 1.244-1.837 2.198-3.26 2.863-1.415.665-3.128.997-5.139.997h-6.916v-4.448h6.021c1.057 0 1.935-.145 2.634-.435.698-.29 1.218-.725 1.559-1.304.35-.58.524-1.3.524-2.161 0-.869-.174-1.602-.524-2.198-.341-.597-.865-1.049-1.572-1.356-.699-.315-1.581-.473-2.647-.473h-3.732v21.657h-5.536Zm14.139-11.915 6.507 11.915h-6.11l-6.367-11.915h5.97Zm18.016 12.298c-2.02 0-3.758-.409-5.216-1.227-1.449-.827-2.565-1.994-3.349-3.503-.784-1.517-1.176-3.311-1.176-5.382 0-2.02.392-3.793 1.176-5.318.784-1.526 1.888-2.715 3.311-3.567 1.432-.852 3.111-1.278 5.037-1.278 1.295 0 2.501.208 3.618.626a8.018 8.018 0 0 1 2.94 1.854c.844.826 1.5 1.866 1.969 3.119.469 1.244.703 2.702.703 4.372v1.496h-16.581v-3.375h11.455c0-.784-.171-1.479-.512-2.084a3.665 3.665 0 0 0-1.419-1.419c-.596-.349-1.291-.524-2.084-.524-.826 0-1.559.192-2.199.575a4.025 4.025 0 0 0-1.482 1.522 4.286 4.286 0 0 0-.55 2.109v3.209c0 .971.179 1.811.537 2.518a3.927 3.927 0 0 0 1.547 1.637c.664.383 1.453.575 2.365.575.605 0 1.159-.085 1.662-.256.502-.17.933-.426 1.291-.767.358-.341.63-.758.818-1.253l5.037.333a6.876 6.876 0 0 1-1.573 3.17c-.784.895-1.798 1.594-3.042 2.097-1.236.494-2.664.741-4.283.741Zm18.166-.013c-1.252 0-2.369-.217-3.349-.652-.98-.443-1.756-1.095-2.327-1.956-.562-.869-.844-1.951-.844-3.247 0-1.091.201-2.007.601-2.748a4.864 4.864 0 0 1 1.637-1.79 7.92 7.92 0 0 1 2.352-1.023c.886-.23 1.815-.392 2.787-.486a70.576 70.576 0 0 0 2.761-.332c.699-.111 1.206-.273 1.522-.486.315-.213.473-.528.473-.946v-.076c0-.81-.256-1.437-.767-1.88-.503-.443-1.219-.665-2.148-.665-.98 0-1.76.218-2.34.652-.579.427-.963.964-1.15 1.611l-5.037-.409c.256-1.193.758-2.224 1.508-3.094.75-.877 1.718-1.551 2.902-2.019 1.194-.478 2.574-.716 4.142-.716 1.091 0 2.135.127 3.132.383 1.006.256 1.897.652 2.672 1.189a5.781 5.781 0 0 1 1.854 2.071c.452.835.678 1.837.678 3.004v13.245h-5.165v-2.723h-.154a5.55 5.55 0 0 1-1.265 1.623 5.871 5.871 0 0 1-1.905 1.087c-.742.256-1.598.383-2.57.383Zm1.56-3.758c.801 0 1.509-.158 2.122-.473a3.767 3.767 0 0 0 1.445-1.304 3.366 3.366 0 0 0 .524-1.854v-2.084a2.933 2.933 0 0 1-.703.307c-.29.085-.618.166-.985.243-.366.068-.733.132-1.099.192l-.997.141a6.687 6.687 0 0 0-1.675.447c-.477.204-.848.481-1.112.831-.264.341-.396.767-.396 1.278 0 .742.268 1.309.805 1.701.545.383 1.236.575 2.071.575Zm22.596 3.771c-2.011 0-3.742-.426-5.19-1.278-1.441-.861-2.549-2.054-3.324-3.58-.767-1.525-1.151-3.281-1.151-5.267 0-2.011.388-3.775 1.163-5.292.785-1.526 1.897-2.715 3.337-3.567 1.44-.861 3.154-1.291 5.139-1.291 1.713 0 3.213.311 4.5.933 1.287.622 2.306 1.496 3.056 2.621s1.163 2.446 1.24 3.963h-5.139c-.145-.98-.529-1.769-1.151-2.365-.614-.605-1.419-.908-2.416-.908-.844 0-1.581.23-2.212.69-.622.452-1.108 1.113-1.457 1.982-.35.869-.524 1.922-.524 3.157 0 1.253.17 2.319.511 3.197.349.877.84 1.546 1.47 2.007.631.46 1.368.69 2.212.69.622 0 1.18-.128 1.675-.384a3.234 3.234 0 0 0 1.24-1.112c.332-.494.549-1.086.652-1.777h5.139c-.085 1.5-.495 2.821-1.227 3.963-.725 1.134-1.726 2.02-3.005 2.659-1.278.64-2.791.959-4.538.959Zm22.701-20.02v4.091h-11.825v-4.091h11.825Zm-9.14-4.704h5.446v18.307c0 .502.076.894.23 1.176.153.272.366.464.639.575.281.111.605.166.972.166.255 0 .511-.021.767-.064.255-.051.451-.089.588-.115l.856 4.053c-.273.085-.656.183-1.15.294-.495.119-1.096.192-1.803.217-1.312.051-2.463-.123-3.452-.524-.98-.401-1.743-1.023-2.288-1.866-.545-.844-.814-1.91-.805-3.197v-19.022Z"/>
  </g>
  <defs>
    <clipPath id="a">
      <path fill="#fff" d="M0 0h313v313H0z"/>
    </clipPath>
  </defs>
</svg>
